<?xml version="1.0" encoding="utf-8"?>
<!-- Generator: Adobe Illustrator 24.0.1, SVG Export Plug-In . SVG Version: 6.00 Build 0)  -->
<svg version="1.1" xmlns="http://www.w3.org/2000/svg" xmlns:xlink="http://www.w3.org/1999/xlink" x="0px" y="0px"
	 viewBox="0 0 500 381.94" style="enable-background:new 0 0 500 381.94;" xml:space="preserve">
<style type="text/css">
	.st0{fill:#F7CAA3;}
	.st1{fill:#E5DAEA;}
	.st2{fill:#C382E8;}
	.st3{fill:#8A46C6;}
	.st4{fill:#FFFFFF;}
	.st5{fill:#EA2194;}
	.st6{fill:#9A1159;}
	.st7{fill:#C9B6D3;}
	.st8{fill:#ED7793;}
	.st9{fill:#CD78FF;}
	.st10{fill:#FFBB99;}
	.st11{fill:#F4A27D;}
	.st12{fill:#FFD1BD;}
	.st13{fill:#D65C80;}
	.st14{fill:#FF99B6;}
	.st15{fill:#47236D;}
	.st16{fill:#242472;}
	.st17{fill:#463DA8;}
	.st18{fill:#2E2E89;}
	.st19{fill:#9032C6;}
	.st20{fill:#F9E280;}
	.st21{fill:#F1C615;}
	.st22{display:none;}
	.st23{display:inline;}
	.st24{fill:#9EB7C7;}
</style>
<g id="OBJECTS">
	<path class="st0" d="M474.08,206.59c-4.42-19.18-19.86-34.92-26-53.97c-14.01-43.51,25.75-100.03-21.81-135.1
		c-48.3-35.61-105.05,8.49-126.6,16.77c-41,15.77-73.61,2.11-97.6-2.4c-39.49-7.42-81.03,2.66-113.15,24.91
		c-65.5,45.39-73.58,130.8-57.53,166.88c9.34,18.39,18.99,26.71,31.87,34.84c54.45,34.37,111.35-27.82,173.25-16.25
		c33.57,6.27,48.46,31.14,78.56,44.8C399.81,325.52,485.09,254.33,474.08,206.59z"/>
	<g>
		<ellipse class="st1" cx="325.05" cy="346.96" rx="130.57" ry="12.67"/>
		<g>
			<g>
				<path class="st2" d="M412.28,348.69H237.81c-4.25,0-8.22-1.18-11.61-3.22c-6.52-3.94-10.89-11.1-10.89-19.27V61.54
					c0-5.33,1.85-10.22,4.95-14.08c4.12-5.13,10.45-8.42,17.54-8.42h174.47c8.49,0,15.89,4.71,19.72,11.66
					c1.77,3.21,2.78,6.91,2.78,10.84V326.2c0,4.76-1.48,9.18-4.01,12.82C426.7,344.86,419.94,348.69,412.28,348.69z"/>
				<path class="st3" d="M222.88,44.72c-0.95,0.84-1.82,1.76-2.62,2.75c-3.1,3.85-4.95,8.75-4.95,14.08V326.2
					c0,8.18,4.36,15.33,10.89,19.27c3.39,2.05,7.36,3.22,11.61,3.22h174.47c6.06,0,11.56-2.41,15.61-6.31
					C397.73,298.7,276.42,122.94,222.88,44.72z"/>
				<rect x="231.35" y="57.04" class="st4" width="187.39" height="273.65"/>
				<polygon class="st1" points="418.74,330.7 231.35,330.7 231.35,57.04 				"/>
				<path class="st5" d="M348.09,30.05c-1.62,0-3.04-1.11-3.41-2.69c-1.22-5.17-5.86-9.02-11.41-9.02h-16.46
					c-5.54,0-10.19,3.85-11.41,9.02c-0.37,1.58-1.78,2.69-3.41,2.69h-12.11c-1.94,0-3.51,1.57-3.51,3.51v25.98
					c0,1.94,1.57,3.51,3.51,3.51h70.31c1.94,0,3.51-1.57,3.51-3.51V33.56c0-1.94-1.57-3.51-3.51-3.51H348.09z"/>
				<path class="st6" d="M338,50.74c-17.47,0-33.06-8.08-43.24-20.69h-4.87c-1.94,0-3.51,1.57-3.51,3.51v25.98
					c0,1.94,1.57,3.51,3.51,3.51h70.31c1.94,0,3.51-1.57,3.51-3.51V44.43C356.02,48.45,347.28,50.74,338,50.74z"/>
			</g>
			<g>
				<g>
					<g>
						<g>
							<path class="st2" d="M296.26,142.15h-44.77V97.39h44.77V142.15z M254.49,139.15h38.77v-38.77h-38.77V139.15z"/>
						</g>
						<g>
							<path class="st7" d="M395.25,100.51h-87.13c-0.86,0-1.56-0.7-1.56-1.56l0,0c0-0.86,0.7-1.56,1.56-1.56h87.13
								c0.86,0,1.56,0.7,1.56,1.56l0,0C396.81,99.81,396.11,100.51,395.25,100.51z"/>
							<path class="st7" d="M395.25,110.92h-87.13c-0.86,0-1.56-0.7-1.56-1.56l0,0c0-0.86,0.7-1.56,1.56-1.56h87.13
								c0.86,0,1.56,0.7,1.56,1.56l0,0C396.81,110.22,396.11,110.92,395.25,110.92z"/>
							<path class="st7" d="M395.25,121.33h-87.13c-0.86,0-1.56-0.7-1.56-1.56l0,0c0-0.86,0.7-1.56,1.56-1.56h87.13
								c0.86,0,1.56,0.7,1.56,1.56l0,0C396.81,120.63,396.11,121.33,395.25,121.33z"/>
							<path class="st7" d="M395.25,131.74h-87.13c-0.86,0-1.56-0.7-1.56-1.56l0,0c0-0.86,0.7-1.56,1.56-1.56h87.13
								c0.86,0,1.56,0.7,1.56,1.56l0,0C396.81,131.04,396.11,131.74,395.25,131.74z"/>
							<path class="st7" d="M373.37,142.15h-65.25c-0.86,0-1.56-0.7-1.56-1.56l0,0c0-0.86,0.7-1.56,1.56-1.56h65.25
								c0.86,0,1.56,0.7,1.56,1.56l0,0C374.93,141.46,374.23,142.15,373.37,142.15z"/>
						</g>
					</g>
					<polygon class="st8" points="258.22,115.63 270.55,132.51 303.23,97.22 270.55,120.54 264.27,110.13 					"/>
				</g>
				<g>
					<g>
						<g>
							<path class="st2" d="M296.26,218.26h-44.77v-44.77h44.77V218.26z M254.49,215.26h38.77v-38.77h-38.77V215.26z"/>
						</g>
						<g>
							<path class="st7" d="M395.25,176.61h-87.13c-0.86,0-1.56-0.7-1.56-1.56l0,0c0-0.86,0.7-1.56,1.56-1.56h87.13
								c0.86,0,1.56,0.7,1.56,1.56l0,0C396.81,175.91,396.11,176.61,395.25,176.61z"/>
							<path class="st7" d="M395.25,187.02h-87.13c-0.86,0-1.56-0.7-1.56-1.56l0,0c0-0.86,0.7-1.56,1.56-1.56h87.13
								c0.86,0,1.56,0.7,1.56,1.56l0,0C396.81,186.32,396.11,187.02,395.25,187.02z"/>
							<path class="st7" d="M395.25,197.43h-87.13c-0.86,0-1.56-0.7-1.56-1.56l0,0c0-0.86,0.7-1.56,1.56-1.56h87.13
								c0.86,0,1.56,0.7,1.56,1.56l0,0C396.81,196.73,396.11,197.43,395.25,197.43z"/>
							<path class="st7" d="M395.25,207.84h-87.13c-0.86,0-1.56-0.7-1.56-1.56l0,0c0-0.86,0.7-1.56,1.56-1.56h87.13
								c0.86,0,1.56,0.7,1.56,1.56l0,0C396.81,207.15,396.11,207.84,395.25,207.84z"/>
							<path class="st7" d="M373.37,218.26h-65.25c-0.86,0-1.56-0.7-1.56-1.56l0,0c0-0.86,0.7-1.56,1.56-1.56h65.25
								c0.86,0,1.56,0.7,1.56,1.56l0,0C374.93,217.56,374.23,218.26,373.37,218.26z"/>
						</g>
					</g>
					<polygon class="st8" points="258.22,191.74 270.55,208.61 303.23,173.32 270.55,196.64 264.27,186.23 					"/>
				</g>
				<g>
					<g>
						<g>
							<path class="st2" d="M296.26,294.36h-44.77v-44.77h44.77V294.36z M254.49,291.36h38.77v-38.77h-38.77V291.36z"/>
						</g>
						<g>
							<path class="st7" d="M395.25,252.71h-87.13c-0.86,0-1.56-0.7-1.56-1.56l0,0c0-0.86,0.7-1.56,1.56-1.56h87.13
								c0.86,0,1.56,0.7,1.56,1.56l0,0C396.81,252.01,396.11,252.71,395.25,252.71z"/>
							<path class="st7" d="M395.25,263.12h-87.13c-0.86,0-1.56-0.7-1.56-1.56l0,0c0-0.86,0.7-1.56,1.56-1.56h87.13
								c0.86,0,1.56,0.7,1.56,1.56l0,0C396.81,262.42,396.11,263.12,395.25,263.12z"/>
							<path class="st7" d="M395.25,273.53h-87.13c-0.86,0-1.56-0.7-1.56-1.56l0,0c0-0.86,0.7-1.56,1.56-1.56h87.13
								c0.86,0,1.56,0.7,1.56,1.56l0,0C396.81,272.84,396.11,273.53,395.25,273.53z"/>
							<path class="st7" d="M395.25,283.95h-87.13c-0.86,0-1.56-0.7-1.56-1.56l0,0c0-0.86,0.7-1.56,1.56-1.56h87.13
								c0.86,0,1.56,0.7,1.56,1.56l0,0C396.81,283.25,396.11,283.95,395.25,283.95z"/>
							<path class="st7" d="M373.37,294.36h-65.25c-0.86,0-1.56-0.7-1.56-1.56l0,0c0-0.86,0.7-1.56,1.56-1.56h65.25
								c0.86,0,1.56,0.7,1.56,1.56l0,0C374.93,293.66,374.23,294.36,373.37,294.36z"/>
						</g>
					</g>
					<polygon class="st8" points="258.22,267.84 270.55,284.72 303.23,249.42 270.55,272.74 264.27,262.33 					"/>
				</g>
			</g>
		</g>
	</g>
	<g>
		<ellipse class="st1" cx="150.75" cy="372.65" rx="75.8" ry="6.54"/>
		<g>
			<path class="st2" d="M53.37,217.78l23.98-11.97l-7.11-14.24l-23.98,11.97c-0.84,0.42-1.42,1.13-1.7,1.95
				c-0.28,0.82-0.24,1.74,0.18,2.57l4.1,8.22c0.41,0.83,1.13,1.41,1.95,1.69C51.61,218.23,52.53,218.19,53.37,217.78z"/>
			<path class="st3" d="M65.52,193.92l5.16,10.34l-22.29,11.13l0.44,0.89c0.41,0.83,1.13,1.41,1.95,1.69
				c0.82,0.27,1.74,0.23,2.58-0.19l23.98-11.97l-7.11-14.24L65.52,193.92z"/>
			<path class="st9" d="M72.63,208.16l-5.16-10.34l-22.29,11.13l-0.44-0.89c-0.41-0.83-0.45-1.75-0.18-2.57
				c0.28-0.82,0.86-1.53,1.7-1.95l23.98-11.97l7.11,14.24L72.63,208.16z"/>
			<path class="st8" d="M241.11,127.09L66.63,213.85c-0.8,0.4-1.69,0.45-2.48,0.2c-0.83-0.26-1.55-0.84-1.97-1.67l-6.31-12.64
				c-0.41-0.82-0.44-1.72-0.17-2.53c0.27-0.8,0.85-1.51,1.67-1.92l174.48-86.76L241.11,127.09z"/>
			<polygon class="st10" points="231.85,108.53 256.3,107.91 241.11,127.09 			"/>
			<polygon class="st11" points="238.6,122.05 256.3,107.91 241.11,127.09 			"/>
			<polygon class="st12" points="231.85,108.53 256.3,107.91 234.36,113.57 			"/>
			<polygon class="st3" points="249.68,108.08 252.19,113.11 256.3,107.91 			"/>
			<path class="st13" d="M61.14,210.3l1.04,2.08c0.42,0.84,1.14,1.42,1.97,1.67c0.79,0.25,1.68,0.2,2.48-0.2l174.48-86.76
				l-2.52-5.04L61.14,210.3z"/>
			<path class="st14" d="M56.91,201.82l-1.04-2.08c-0.42-0.83-0.45-1.76-0.16-2.58c0.28-0.78,0.85-1.46,1.65-1.87l174.48-86.76
				l2.52,5.04L56.91,201.82z"/>
			
				<rect x="62.75" y="191.52" transform="matrix(0.8947 -0.4467 0.4467 0.8947 -79.9082 49.7649)" class="st9" width="5.66" height="5.63"/>
			
				<rect x="69.5" y="205.04" transform="matrix(0.8947 -0.4467 0.4467 0.8947 -85.2359 54.2039)" class="st3" width="5.66" height="5.63"/>
			
				<rect x="66.12" y="196.36" transform="matrix(0.8947 -0.4467 0.4467 0.8947 -82.5709 51.9832)" class="st2" width="5.66" height="9.48"/>
		</g>
		<g>
			<path class="st15" d="M142.57,237.81l-11.86,15.82c0,0,10.77,7.8,21.92,3.1c11.15-4.7,33.55-3.83,34.11-11.63
				c0.56-7.8-22.27-12.33-22.27-12.33L142.57,237.81z"/>
			<path class="st2" d="M171.7,363.92c0,0,13.85,0.43,14.2,4.39c0.34,3.96-6.71,7.13-15.56,6.93c-8.04-0.19-14.82-0.47-14.67-2.88
				c0.15-2.41,1.3-8.43,1.3-8.43H171.7z"/>
			<path class="st3" d="M171.7,363.92h-14.73c0,0-1.15,6.02-1.3,8.43c-0.15,2.41,6.63,2.7,14.67,2.88
				c6.85,0.16,12.61-1.71,14.71-4.4C181.75,365.97,171.7,363.92,171.7,363.92z"/>
			<path class="st2" d="M127.79,356.1c0,0,8.36,13.91,5.36,19.38c-2.99,5.47-15.55-7.85-18.31-13.74
				c-3.53-7.54-3.37-8.23,5.61-16.98c3.36-3.28,3.95-2.04,3.95-2.04s1.85,4.31,2.8,4.68S127.79,356.1,127.79,356.1z"/>
			<path class="st3" d="M133.15,375.48c0.21-0.39,0.36-0.82,0.47-1.28c-1.21-6.9-8.85-16.94-10.37-20
				c-1.67-3.35,1.33-5.93,1.33-5.93s0.74-0.8,1.72-1.86c-0.9-1.38-1.9-3.7-1.9-3.7s-0.59-1.24-3.95,2.04
				c-8.98,8.76-9.14,9.44-5.61,16.98C117.6,367.63,130.16,380.95,133.15,375.48z"/>
			<path class="st15" d="M113.24,356.1c-0.15,0.21-0.26,0.46-0.34,0.72c0.31,1.34,0.98,2.88,1.95,4.93
				c2.42,5.17,12.39,16.06,16.82,14.94c0.02-1.91-0.68-4.52-2.43-7.21C125.31,363.47,115.64,352.74,113.24,356.1z"/>
			<path class="st16" d="M136.11,243.9c0,0,0.26,0.72,0.72,2.06c4.43,12.85,27.56,82.58,20.14,117.96c0,0,9.84,1.09,14.73,0
				c0,0,6.07-54.89-4.03-85.82c-6.42-19.67-12.42-41.85-12.42-41.85"/>
			<path class="st17" d="M183.06,237.81c0,0,6.13,66.96-55.27,118.29c0,0-0.52-7.56-7.34-11.34c0,0,41.24-60.46,36.7-75.23
				c-4.55-14.76-15.73-20.16-14.58-31.72c1.14-11.57,21.18-12.57,21.18-12.57L183.06,237.81z"/>
			<path class="st18" d="M182.41,256.73c1.31-11.62,0.65-18.92,0.65-18.92l-19.31-12.57c0,0-20.03,1-21.18,12.57
				c-1.14,11.57,10.04,16.96,14.58,31.72c4.54,14.76-36.7,75.23-36.7,75.23c1.77,0.98,3.11,2.22,4.13,3.51
				C162.43,313.43,173.49,278.84,182.41,256.73z"/>
			<path class="st2" d="M202.7,145.98c0,0-3.6,14.75-10.4,18.53c-6.8,3.77-33.37,7.02-33.37,7.02l-9.84-1.17l-23.5,22.04
				c0,0-6.47,8.62-14.22,13.66c-7.74,5.04-22.8-4.77-22.8-4.77l-5.74,5.91c-1.26-1.38,14.18,13.09,22.8,13.39
				c10.95,0.38,25.08-9.83,25.08-9.83l0.61-0.47c0.06,0.38,0.11,0.78,0.18,1.21c2.08,14.52-0.79,42.12-0.79,42.12
				c14.13-16.43,56.03-8.53,56.03-8.53c-1.21-20.43-14.03-59.06-14.03-59.06s19.25-5.72,27.13-11.03
				c7.88-5.31,11.85-26.24,11.85-26.24L202.7,145.98z"/>
			<g>
				<path class="st3" d="M201.49,165.52c-4.37,6-31.21,18.96-45.31,13.14c-4.17-1.72-6.82-4.26-8.49-6.98l-3.54,3.32
					c-1.76,4.22-3.27,10.17-8.04,15.97c-23.69,28.76-38.56,19.81-50.02,11.66l-3.23,4.55c1.22,0.94,14.86,13.14,22.77,13.42
					c10.95,0.38,25.08-9.83,25.08-9.83l0.61-0.47c0.06,0.38,0.11,0.78,0.18,1.21c2.08,14.52-0.79,42.12-0.79,42.12
					c9.14-10.63,29.91-11.07,43.43-10.07c-0.92-23.5-9.67-56.52-9.67-56.52l8.24-1.01c0,0,19.25-5.72,27.13-11.03
					c7.88-5.31,11.85-26.24,11.85-26.24l-3.81-1.18C206.54,153.36,204.22,161.77,201.49,165.52z"/>
				<path class="st19" d="M82.83,207.2l0.03-0.03C82.75,207.09,82.73,207.09,82.83,207.2z"/>
			</g>
			<path class="st11" d="M157.61,156.39c0,0-1.47,10.27,1.31,15.14c0,0-3.77,6.38-9.84,3.36c-6.07-3.02-6.52-14.23-6.52-14.23
				l8.75-9.56L157.61,156.39z"/>
			<path class="st10" d="M144.53,124.51c0,0,13.24,0.43,18.48,16.28c5.25,15.85-4.45,26.56-16.19,20.89
				c-11.74-5.66-17.99-27.19-17.99-27.19L144.53,124.51z"/>
			<path class="st11" d="M164.4,150.84c-3.41,1.42-8.4,1.87-13.66-3.25c-6.16-6-6.17-16.3-5.29-22.99c-0.59-0.08-0.93-0.1-0.93-0.1
				l-12.19,7.75l-1.32,4.29l1.2,6.84c2.98,6.62,7.9,15.05,14.61,18.29C155.84,166.03,163.64,160.71,164.4,150.84z"/>
			<path class="st20" d="M147.24,123.7c0,0,1.43-4.69-1.77-9.22c-3.21-4.53-15.14-6.23-16.64,2.26c-1.49,8.5-1.59,14.68-1.59,14.68
				s-12.17,0.82-14.06,16.47c-1.38,11.37,19.63,38.7,9.59,42.86s-14.31-1.4-13.18-5.99c0,0-6.4,8.55-0.18,16.52
				c6.22,7.97,32.87,5.27,40.92-13.18c8.06-18.45-1.37-34.99-1.37-34.99s-4.02,3.06-6.4-0.99s3.28-4.99,3.28-4.99
				s-4.72-10.78-8.5-10.58C137.35,136.55,147.13,129.53,147.24,123.7z"/>
			<path class="st10" d="M202.27,147.52c0,0-5.09-4.67-4.99-8.11c0.1-3.43,2.73-0.79,4.28,0.27s5.28,0.63,7.85-2.39
				c2.56-3.03,7.13-6.89,8.52-2.33c1.4,4.56-2.83,13.13-6.57,15.42C211.36,150.38,207.31,146.93,202.27,147.52z"/>
			<path class="st10" d="M84.17,208.49c0,0,0.4-4.3,5.83-6.37c0,0,3.09-7.66,2.23-10.46c-0.86-2.8-2.73,0.19-3.65,2.17
				c-0.92,1.97-3.03,3.12-7.13,0c-4.1-3.12-9.77-1.33-9.13,4.23C72.75,201.87,79.95,208.25,84.17,208.49z"/>
			<path class="st11" d="M218.04,135.44c-1.8,9.04-10.29,12.78-10.29,12.78l0.06,0.12c2.16,0.86,3.56,2.04,3.56,2.04
				C214.98,148.16,219.03,140.09,218.04,135.44z"/>
			<path class="st11" d="M84.17,208.49c0,0,0.26-2.7,3.07-4.85c-7.15,1.06-11.7-5.78-13.73-9.84c-0.9,0.97-1.4,2.4-1.19,4.26
				C72.75,201.87,79.95,208.25,84.17,208.49z"/>
			<path class="st21" d="M150.34,188.11c6.02-13.77,2.29-26.49,0.01-32.04c-5.25,2.97-22.98,11.44-29.9-4.96
				c-1.93-4.57-2.46-9.79-2.18-15.09c-2.34,2.44-4.4,6.17-5.09,11.89c-1.38,11.37,19.63,38.7,9.59,42.86s-14.31-1.4-13.18-5.99
				c0,0-6.4,8.55-0.18,16.52C115.64,209.26,142.28,206.56,150.34,188.11z"/>
		</g>
	</g>
</g>
<g id="DESIGNED_BY_FREEPIK" class="st22">
	<g class="st23">
		<g id="XMLID_29_">
			<g id="XMLID_48_">
				<path id="XMLID_56_" class="st24" d="M260.1,416.76c-0.43,0.44-0.8,0.93-1.11,1.45l-0.47-0.24c-0.07-0.3-0.35-0.5-0.66-0.47
					c-0.33,0.04-0.57,0.34-0.53,0.67c0.04,0.33,0.34,0.57,0.67,0.53c0.07-0.01,0.13-0.03,0.18-0.05l0.45,0.23
					c-0.25,0.55-0.43,1.14-0.54,1.74l0.75,0.13c0.23-1.31,0.85-2.51,1.79-3.47L260.1,416.76z"/>
				<path id="XMLID_55_" class="st24" d="M265.59,414.45c-0.17,0-0.34,0.01-0.51,0.02l-0.07-0.63c0.19-0.15,0.3-0.39,0.27-0.64
					c-0.05-0.39-0.4-0.67-0.8-0.63c-0.39,0.05-0.67,0.4-0.63,0.8c0.03,0.25,0.19,0.46,0.4,0.56l0.07,0.62
					c-0.71,0.12-1.4,0.33-2.06,0.65l0.33,0.68c0.93-0.45,1.94-0.67,3-0.67c0.5,0,0.99,0.05,1.48,0.16l0.16-0.74
					C266.69,414.51,266.14,414.45,265.59,414.45z"/>
				<path id="XMLID_54_" class="st24" d="M272.19,417c0.33-0.04,0.57-0.34,0.53-0.67c-0.04-0.33-0.34-0.57-0.67-0.53
					c-0.31,0.04-0.54,0.3-0.53,0.61l-0.42,0.36c-0.42-0.43-0.89-0.81-1.41-1.14l-0.4,0.64c1.13,0.71,2.02,1.73,2.56,2.93l0.69-0.31
					c-0.25-0.55-0.57-1.07-0.94-1.54l0.4-0.35C272.06,417.01,272.13,417.01,272.19,417z"/>
				<path id="XMLID_53_" class="st24" d="M265.04,424.66c-0.39,0.02-0.78,0.03-1.16,0.03c-0.88,0-1.73-0.06-2.48-0.18
					c-0.39-0.06-0.85-0.15-1.27-0.29c1.05,1.86,3.07,3.12,5.39,3.12c2.86,0,5.26-1.92,5.95-4.5c-0.68,0.45-1.51,0.83-2.46,1.12
					C267.84,424.34,266.46,424.58,265.04,424.66z"/>
				<path id="XMLID_49_" class="st24" d="M265.59,415.97c-3.35,0-6.08,2.67-6.08,5.94c0,0.43,0.05,0.85,0.14,1.26
					c0.67,0.48,2.71,0.89,5.35,0.73c2.88-0.17,5.3-0.96,6.67-2.16c-0.01-0.2-0.02-0.39-0.05-0.58
					C271.24,418.2,268.65,415.97,265.59,415.97z M263.43,422.48c-1.02,0-1.85-0.83-1.85-1.85c0-1.02,0.83-1.85,1.85-1.85
					c1.02,0,1.85,0.83,1.85,1.85C265.28,421.65,264.45,422.48,263.43,422.48z M268.17,421.58c-0.75,0-1.36-0.61-1.36-1.36
					s0.61-1.36,1.36-1.36s1.36,0.61,1.36,1.36S268.92,421.58,268.17,421.58z"/>
			</g>
			<path id="XMLID_46_" class="st24" d="M281.6,417.84c-0.29-0.12-0.81-0.31-1.38-0.24c-0.55,0.07-0.84,0.34-0.84,1.01v0.87h2.23
				v1.72h-2.23v5.45h-1.93v-5.45h-1.34v-1.72h1.34v-0.89c0-1.68,0.9-2.78,2.57-2.78c0.64,0,1.16,0.12,1.59,0.31L281.6,417.84z"/>
			<path id="XMLID_44_" class="st24" d="M286.3,421.17c-0.18-0.03-0.36-0.05-0.53-0.05c-0.9,0-1.51,0.55-1.51,1.61v3.91h-1.93v-7.17
				h1.87v0.78c0.45-0.67,1.14-0.98,2.02-0.98c0.41,0,0.85,0.13,1.09,0.34L286.3,421.17z"/>
			<path id="XMLID_41_" class="st24" d="M293.97,423.05c0,0.22-0.01,0.49-0.04,0.65h-5.08c0.21,1.04,0.93,1.49,1.84,1.49
				c0.62,0,1.3-0.25,1.81-0.69l1.13,1.24c-0.81,0.75-1.85,1.09-3.06,1.09c-2.2,0-3.72-1.5-3.72-3.75c0-2.26,1.48-3.8,3.63-3.8
				C292.54,419.28,293.96,420.81,293.97,423.05z M288.85,422.38h3.18c-0.18-0.92-0.73-1.44-1.56-1.44
				C289.55,420.95,289.02,421.49,288.85,422.38z"/>
			<path id="XMLID_38_" class="st24" d="M301.62,423.05c0,0.22-0.01,0.49-0.04,0.65h-5.08c0.21,1.04,0.93,1.49,1.84,1.49
				c0.62,0,1.3-0.25,1.81-0.69l1.13,1.24c-0.81,0.75-1.85,1.09-3.06,1.09c-2.2,0-3.72-1.5-3.72-3.75c0-2.26,1.48-3.8,3.63-3.8
				C300.2,419.28,301.61,420.81,301.62,423.05z M296.5,422.38h3.18c-0.18-0.92-0.73-1.44-1.56-1.44
				C297.21,420.95,296.67,421.49,296.5,422.38z"/>
			<path id="XMLID_35_" class="st24" d="M309.96,423.05c0,2.15-1.5,3.77-3.47,3.77c-0.96,0-1.64-0.38-2.11-0.93v3.71h-1.92v-10.13
				h1.89v0.79c0.47-0.58,1.15-0.98,2.14-0.98C308.47,419.28,309.96,420.9,309.96,423.05z M304.29,423.05c0,1.13,0.75,1.98,1.84,1.98
				c1.14,0,1.85-0.88,1.85-1.98c0-1.1-0.71-1.98-1.85-1.98C305.03,421.08,304.29,421.92,304.29,423.05z"/>
			<path id="XMLID_32_" class="st24" d="M313.07,417.13c0,0.7-0.54,1.23-1.24,1.23c-0.7,0-1.23-0.53-1.23-1.23
				c0-0.7,0.53-1.24,1.23-1.24C312.53,415.88,313.07,416.43,313.07,417.13z M312.81,426.64h-1.93v-7.17h1.93V426.64z"/>
			<path id="XMLID_30_" class="st24" d="M316.03,422.03l2.7-2.55h2.37l-3.48,3.38l3.5,3.8h-2.38l-2.72-2.9v2.9h-1.93v-10.66h1.93
				V422.03z"/>
		</g>
		<g>
			<path class="st24" d="M184.41,426.58v-1.05c-0.53,0.72-1.39,1.23-2.39,1.23c-1.85,0-3.15-1.41-3.15-3.71
				c0-2.26,1.29-3.72,3.15-3.72c0.95,0,1.82,0.47,2.39,1.25v-3.76h1.1v9.77H184.41z M184.41,424.66v-3.21
				c-0.4-0.62-1.24-1.14-2.12-1.14c-1.42,0-2.27,1.17-2.27,2.74c0,1.57,0.85,2.72,2.27,2.72
				C183.17,425.77,184.02,425.28,184.41,424.66z"/>
			<path class="st24" d="M186.93,423.03c0-2.05,1.46-3.71,3.49-3.71c2.14,0,3.4,1.67,3.4,3.79v0.28h-5.73
				c0.09,1.33,1.03,2.45,2.55,2.45c0.81,0,1.63-0.32,2.18-0.89l0.53,0.72c-0.7,0.7-1.65,1.08-2.81,1.08
				C188.44,426.76,186.93,425.25,186.93,423.03z M190.4,420.24c-1.51,0-2.26,1.27-2.31,2.36h4.64
				C192.72,421.54,192.01,420.24,190.4,420.24z"/>
			<path class="st24" d="M194.61,425.64l0.57-0.79c0.47,0.54,1.36,1.01,2.33,1.01c1.08,0,1.67-0.51,1.67-1.22
				c0-1.71-4.38-0.66-4.38-3.28c0-1.1,0.95-2.04,2.64-2.04c1.2,0,2.05,0.45,2.62,1.03l-0.51,0.76c-0.42-0.51-1.2-0.89-2.11-0.89
				c-0.97,0-1.57,0.48-1.57,1.11c0,1.55,4.38,0.53,4.38,3.28c0,1.19-0.95,2.14-2.78,2.14C196.31,426.76,195.32,426.4,194.61,425.64z
				"/>
			<path class="st24" d="M201.48,417.76c0-0.41,0.34-0.75,0.73-0.75c0.41,0,0.75,0.34,0.75,0.75c0,0.41-0.34,0.73-0.75,0.73
				C201.81,418.49,201.48,418.17,201.48,417.76z M201.67,426.58v-7.07h1.1v7.07H201.67z"/>
			<path class="st24" d="M204.58,428.4l0.56-0.82c0.59,0.7,1.29,0.97,2.3,0.97c1.17,0,2.27-0.57,2.27-2.12v-1.01
				c-0.51,0.72-1.38,1.26-2.37,1.26c-1.85,0-3.15-1.38-3.15-3.66c0-2.27,1.29-3.68,3.15-3.68c0.95,0,1.8,0.47,2.37,1.25v-1.07h1.1
				v6.87c0,2.34-1.64,3.08-3.37,3.08C206.24,429.45,205.42,429.22,204.58,428.4z M209.71,424.54v-3.09
				c-0.38-0.62-1.23-1.14-2.11-1.14c-1.42,0-2.27,1.13-2.27,2.7c0,1.55,0.85,2.7,2.27,2.7C208.48,425.7,209.33,425.16,209.71,424.54
				z"/>
			<path class="st24" d="M217.41,426.58v-4.63c0-1.24-0.63-1.64-1.58-1.64c-0.86,0-1.68,0.53-2.09,1.1v5.17h-1.1v-7.07h1.1v1.03
				c0.5-0.59,1.46-1.2,2.52-1.2c1.48,0,2.26,0.75,2.26,2.29v4.97H217.41z"/>
			<path class="st24" d="M219.93,423.03c0-2.05,1.46-3.71,3.49-3.71c2.14,0,3.4,1.67,3.4,3.79v0.28h-5.73
				c0.09,1.33,1.03,2.45,2.55,2.45c0.81,0,1.63-0.32,2.18-0.89l0.53,0.72c-0.7,0.7-1.66,1.08-2.81,1.08
				C221.44,426.76,219.93,425.25,219.93,423.03z M223.4,420.24c-1.51,0-2.26,1.27-2.31,2.36h4.64
				C225.72,421.54,225.02,420.24,223.4,420.24z"/>
			<path class="st24" d="M233.35,426.58v-1.05c-0.53,0.72-1.39,1.23-2.39,1.23c-1.85,0-3.15-1.41-3.15-3.71
				c0-2.26,1.29-3.72,3.15-3.72c0.95,0,1.82,0.47,2.39,1.25v-3.76h1.1v9.77H233.35z M233.35,424.66v-3.21
				c-0.4-0.62-1.25-1.14-2.12-1.14c-1.42,0-2.27,1.17-2.27,2.74c0,1.57,0.85,2.72,2.27,2.72
				C232.1,425.77,232.95,425.28,233.35,424.66z"/>
			<path class="st24" d="M239.69,426.58v-9.77h1.1v3.76c0.57-0.78,1.42-1.25,2.39-1.25c1.85,0,3.15,1.46,3.15,3.72
				c0,2.3-1.3,3.71-3.15,3.71c-1,0-1.86-0.51-2.39-1.23v1.05H239.69z M242.9,425.77c1.44,0,2.29-1.16,2.29-2.72
				c0-1.57-0.85-2.74-2.29-2.74c-0.86,0-1.73,0.53-2.11,1.14v3.21C241.17,425.28,242.04,425.77,242.9,425.77z"/>
			<path class="st24" d="M247.53,428.35c0.16,0.07,0.43,0.12,0.6,0.12c0.48,0,0.81-0.16,1.05-0.75l0.47-1.07l-2.96-7.15h1.19
				l2.36,5.8l2.34-5.8h1.2l-3.54,8.51c-0.42,1.03-1.14,1.42-2.08,1.44c-0.23,0-0.6-0.04-0.81-0.1L247.53,428.35z"/>
		</g>
	</g>
</g>
</svg>
