<?xml version="1.0" encoding="utf-8"?>
<!-- Generator: Adobe Illustrator 24.1.0, SVG Export Plug-In . SVG Version: 6.00 Build 0)  -->
<svg version="1.1" xmlns="http://www.w3.org/2000/svg" xmlns:xlink="http://www.w3.org/1999/xlink" x="0px" y="0px"
	 viewBox="0 0 750 500" style="enable-background:new 0 0 750 500;" xml:space="preserve">
<style type="text/css">
	.st0{opacity:0.47;fill:#ECF1F7;}
	.st1{opacity:0.81;fill:#ECF1F7;}
	.st2{opacity:0.58;fill:#3E479B;}
	.st3{opacity:0.58;fill:#EF929C;}
	.st4{fill:#FFFFFF;}
	.st5{opacity:0.36;}
	.st6{fill:#599AF2;}
	.st7{opacity:0.18;}
	.st8{fill:none;stroke:#4C65BA;stroke-miterlimit:10;}
	.st9{fill:#EF929C;}
	.st10{opacity:0.54;fill:#EF929C;}
	.st11{opacity:0.98;}
	.st12{opacity:0.5;fill:#EF929C;}
	.st13{opacity:0.54;}
	.st14{opacity:0.43;fill:#EF929C;}
	.st15{fill:none;stroke:#FFFFFF;stroke-linecap:round;stroke-miterlimit:10;}
	.st16{opacity:0.58;fill:#FFFFFF;}
	.st17{fill:#3E479B;}
	.st18{opacity:0.8;fill:#599AF2;}
	.st19{fill:#4C65BA;}
	.st20{opacity:0.55;fill:#FFFFFF;}
	.st21{fill:#373449;}
	.st22{fill:none;stroke:#373449;stroke-width:2;stroke-linecap:round;stroke-miterlimit:10;}
	.st23{fill:none;stroke:#FFFFFF;stroke-width:2;stroke-linecap:round;stroke-miterlimit:10;}
	.st24{opacity:0.66;fill:#599AF2;}
	.st25{opacity:0.68;}
	.st26{opacity:0.89;}
	.st27{fill:none;stroke:#4C65BA;stroke-width:2;stroke-linecap:round;stroke-miterlimit:10;}
	.st28{opacity:0.77;}
	.st29{opacity:0.39;fill:#599AF2;}
	.st30{opacity:0.39;}
	.st31{fill:#F9DCD2;}
	.st32{fill:#FFA06E;}
	.st33{opacity:0.31;fill:none;stroke:#ECF1F7;stroke-linecap:round;stroke-miterlimit:10;}
	.st34{opacity:0.37;fill:#EF929C;}
	.st35{fill:none;stroke:#EF929C;stroke-width:0.5;stroke-linecap:round;stroke-miterlimit:10;}
</style>
<g id="BACKGROUND">
	<g>
		<g>
			<path class="st0" d="M57.52,320.5c-8.61,2.66-13.43,11.79-10.77,20.4c2.66,8.61,13.64,19.41,22.25,16.75
				c8.61-2.66,4.9-16.29,6.73-25.11C78.28,320.24,66.12,317.84,57.52,320.5z"/>
			<path class="st0" d="M155.01,50.75c-6.45-12.02-21.43-16.54-33.45-10.09c-12.02,6.45-24.89,25.91-18.44,37.93
				c6.45,12.02,25.63,2.56,39.28,2.72C161.43,81.54,161.47,62.77,155.01,50.75z"/>
		</g>
		<g>
			<path class="st0" d="M686.95,388.54c8.53-13.57,10.67-30.41,8.9-46.34c-1.77-15.83-6.62-32.44-13.39-46.84
				c-6.42-13.65-15.72-25.82-18.37-41.02c-3.5-20.08,5.67-39.39,7.79-59.09c4.24-39.22-22.27-73.77-55.15-92.43
				c-26.7-15.16-58.01-20.84-88.71-20.44c-27.63,0.36-55.22,5.27-81.99,11.86c-25.8,6.35-51.03,14.72-78.08,12.08
				c-22.5-2.2-42.76-11.54-63.71-18.51c-50.02-16.63-110.6-18.98-156.34,6.34c-29.35,16.25-49.9,42.64-59.01,71.02
				c-6.67,20.78-8.65,44.68-3.76,65.71c5.5,23.63,15.65,44.45,12.97,69.35c-2.2,20.43-9.71,40.35-9.04,61.07
				c0.57,17.81,7.24,35.62,17.61,50.03c0.67,0.93,1.38,1.85,2.19,2.66h548.93C669.28,407.81,680,399.59,686.95,388.54z"/>
			<g>
				<path class="st1" d="M616.48,374.94c1.94-15.14-2.61-29.2-2.01-43.91c1.15-28.29,27.14-47.82,36.19-73.25
					c11.47-32.2,10.92-68.29-3.01-99.66c-6.71-15.12-16.52-29.18-29.91-38.9c-20.64-14.98-47.68-18.27-73.12-16.37
					c-37.85,2.83-77.8,18.57-115.85,14.28c-21-2.37-27.41-24.21-38.26-38.61c-12.27-16.29-28.97-29.09-47.44-37.61
					c-34.02-15.69-74.85-17.17-109.62-2.95c-37.12,15.19-69.48,52.28-67.35,94.23c0.98,19.41,9.07,38.68,5.33,57.75
					c-4.7,23.93-23.47,45.74-37.07,65.23c-15.02,21.53-24.11,47.21-25.9,73.41c-2.02,29.7,5.38,59.97,20.84,85.41h474.13
					C610.31,402.02,614.72,388.64,616.48,374.94z"/>
			</g>
		</g>
	</g>
	<circle class="st2" cx="687.5" cy="263.5" r="4.5"/>
	<circle class="st3" cx="655.5" cy="388.5" r="3.5"/>
	<circle class="st3" cx="112.5" cy="107.5" r="4.5"/>
	<circle class="st2" cx="78.5" cy="276.5" r="3.5"/>
	<circle class="st2" cx="83.5" cy="129.5" r="1.5"/>
	<path class="st3" d="M455.46,62.22c-0.62,2.92-3.49,4.78-6.41,4.16c-2.92-0.62-4.78-3.49-4.16-6.41c0.62-2.92,3.49-4.78,6.41-4.16
		C454.22,56.43,456.08,59.3,455.46,62.22z"/>
	<path class="st2" d="M412.36,80.03c-0.21,0.97-1.16,1.59-2.14,1.39c-0.97-0.21-1.59-1.16-1.39-2.14s1.16-1.59,2.14-1.39
		C411.95,78.1,412.57,79.05,412.36,80.03z"/>
</g>
<g id="OBJECTS">
	<g>
		<g>
			<g>
				<g>
					<path class="st4" d="M273.35,186.97h-13.95c-2.87,0-5.21-2.34-5.21-5.21v-10.79c-3.71-1.02-7.28-2.5-10.64-4.41l-7.63,7.63
						c-2.03,2.03-5.34,2.03-7.37,0l-9.86-9.86c-2.03-2.03-2.03-5.34,0-7.37l7.63-7.63c-1.92-3.36-3.4-6.93-4.41-10.64H211.1
						c-2.87,0-5.21-2.34-5.21-5.21v-13.95c0-2.87,2.34-5.21,5.21-5.21h10.79c1.02-3.71,2.5-7.28,4.41-10.64l-7.63-7.63
						c-2.03-2.03-2.03-5.34,0-7.37l9.86-9.86c2.03-2.03,5.34-2.03,7.37,0l7.63,7.63c3.36-1.92,6.93-3.4,10.64-4.41V71.21
						c0-2.87,2.34-5.21,5.21-5.21h13.95c2.87,0,5.21,2.34,5.21,5.21V82c3.71,1.01,7.29,2.5,10.64,4.41l7.63-7.63
						c2.03-2.03,5.34-2.03,7.37,0l9.87,9.86c2.03,2.03,2.03,5.34,0,7.37l-7.63,7.63c1.92,3.36,3.4,6.93,4.41,10.64h10.78
						c2.87,0,5.21,2.34,5.21,5.21v13.95c0,2.87-2.34,5.21-5.21,5.21h-10.78c-1.02,3.71-2.5,7.29-4.41,10.64l7.63,7.63
						c2.03,2.03,2.03,5.34,0,7.37l-9.87,9.86c-2.04,2.04-5.34,2.03-7.37,0l-7.63-7.63c-3.36,1.92-6.93,3.4-10.64,4.41v10.79
						C278.56,184.63,276.22,186.97,273.35,186.97z M243.16,163.58l0.79,0.47c3.65,2.19,7.59,3.82,11.7,4.85l0.9,0.23v12.63
						c0,1.57,1.27,2.84,2.84,2.84h13.95c1.57,0,2.84-1.28,2.84-2.84v-12.63l0.9-0.23c4.11-1.03,8.05-2.67,11.7-4.85l0.79-0.47
						l8.93,8.93c1.11,1.11,2.91,1.11,4.02,0l9.87-9.87c1.11-1.11,1.11-2.91,0-4.02l-8.93-8.93l0.47-0.79
						c2.18-3.65,3.82-7.59,4.85-11.7l0.22-0.9h12.62c1.57,0,2.84-1.27,2.84-2.84v-13.95c0-1.57-1.27-2.84-2.84-2.84h-12.62
						l-0.22-0.9c-1.04-4.11-2.67-8.05-4.85-11.7l-0.47-0.79l8.93-8.93c1.11-1.11,1.11-2.91,0-4.02l-9.87-9.87
						c-1.1-1.1-2.91-1.11-4.02,0l-8.93,8.93l-0.79-0.47c-3.66-2.19-7.59-3.82-11.7-4.85l-0.9-0.23V71.21c0-1.57-1.27-2.84-2.84-2.84
						h-13.95c-1.57,0-2.84,1.28-2.84,2.84v12.62l-0.9,0.23c-4.11,1.03-8.05,2.67-11.7,4.85l-0.79,0.47l-8.93-8.93
						c-1.11-1.11-2.91-1.11-4.02,0l-9.87,9.87c-1.11,1.11-1.11,2.91,0,4.02l8.93,8.93l-0.47,0.79c-2.19,3.65-3.82,7.59-4.85,11.7
						l-0.23,0.9H211.1c-1.57,0-2.84,1.27-2.84,2.84v13.95c0,1.57,1.28,2.84,2.84,2.84h12.63l0.23,0.9c1.03,4.11,2.67,8.05,4.85,11.7
						l0.47,0.79l-8.93,8.93c-1.11,1.11-1.11,2.91,0,4.02l9.87,9.87c1.11,1.11,2.91,1.11,4.02,0L243.16,163.58z M266.37,159.46
						c-18.18,0-32.97-14.79-32.97-32.97s14.79-32.97,32.97-32.97c18.18,0,32.97,14.79,32.97,32.97S284.55,159.46,266.37,159.46z
						 M266.37,95.88c-16.87,0-30.6,13.73-30.6,30.6s13.73,30.6,30.6,30.6s30.6-13.73,30.6-30.6S283.24,95.88,266.37,95.88z"/>
				</g>
			</g>
			<g>
				<path class="st4" d="M253.76,220.89l-5.84-3.17c0.62-2.43,0.87-4.91,0.76-7.35l6.37-1.9c1.21-0.36,1.9-1.63,1.54-2.85l-2.26-7.6
					c-0.36-1.21-1.63-1.9-2.84-1.54l-6.37,1.9c-1.25-2.1-2.81-4.04-4.66-5.74l3.17-5.84c0.6-1.11,0.19-2.5-0.92-3.1l-6.97-3.77
					c-1.11-0.6-2.5-0.19-3.1,0.92l-3.17,5.84c-2.43-0.62-4.91-0.87-7.35-0.76l-1.9-6.37c-0.36-1.21-1.63-1.9-2.84-1.54l-7.6,2.26
					c-1.21,0.36-1.9,1.63-1.54,2.85l1.9,6.37c-2.1,1.25-4.04,2.81-5.74,4.66l-5.84-3.17c-1.11-0.6-2.5-0.19-3.1,0.92l-3.77,6.97
					c-0.6,1.11-0.19,2.5,0.92,3.1l5.84,3.17c-0.62,2.43-0.87,4.91-0.76,7.35l-6.37,1.9c-1.21,0.36-1.9,1.63-1.54,2.85l2.26,7.6
					c0.36,1.21,1.63,1.9,2.85,1.54l6.37-1.9c1.25,2.1,2.81,4.04,4.66,5.74l-3.17,5.84c-0.6,1.11-0.19,2.5,0.92,3.1l6.97,3.77
					c1.11,0.6,2.5,0.19,3.1-0.92l3.17-5.84c2.43,0.62,4.91,0.87,7.35,0.76l1.9,6.37c0.36,1.21,1.63,1.9,2.85,1.54l7.6-2.26
					c1.21-0.36,1.9-1.63,1.54-2.84l-1.9-6.37c2.1-1.25,4.04-2.81,5.74-4.66l5.84,3.17c1.11,0.6,2.5,0.19,3.1-0.92l3.77-6.97
					C255.28,222.88,254.87,221.49,253.76,220.89z M214.57,227.31c-8.77-4.75-12.03-15.71-7.28-24.48
					c4.75-8.77,15.71-12.03,24.48-7.28c8.77,4.75,12.03,15.71,7.28,24.48C234.3,228.8,223.34,232.06,214.57,227.31z"/>
			</g>
			<g class="st5">
				<path class="st6" d="M209.05,167.58l-4.5-2.44c0.48-1.87,0.67-3.78,0.59-5.66l4.91-1.46c0.93-0.28,1.46-1.26,1.19-2.19
					l-1.74-5.85c-0.28-0.93-1.26-1.46-2.19-1.19l-4.91,1.46c-0.96-1.62-2.16-3.11-3.58-4.42l2.44-4.5c0.46-0.86,0.15-1.92-0.71-2.39
					l-5.36-2.9c-0.86-0.46-1.92-0.15-2.39,0.71l-2.44,4.5c-1.87-0.48-3.78-0.67-5.66-0.59l-1.46-4.91
					c-0.28-0.93-1.26-1.46-2.19-1.19l-5.85,1.74c-0.93,0.28-1.46,1.26-1.19,2.19l1.46,4.91c-1.62,0.96-3.11,2.16-4.42,3.58
					l-4.5-2.44c-0.85-0.46-1.92-0.15-2.39,0.71l-2.9,5.36c-0.46,0.86-0.15,1.92,0.71,2.39l4.5,2.44c-0.48,1.87-0.67,3.78-0.59,5.66
					l-4.91,1.46c-0.93,0.28-1.46,1.26-1.19,2.19l1.74,5.85c0.28,0.93,1.26,1.46,2.19,1.19l4.91-1.46c0.96,1.62,2.16,3.11,3.58,4.42
					l-2.44,4.5c-0.46,0.85-0.15,1.92,0.71,2.39l5.36,2.9c0.85,0.46,1.92,0.15,2.39-0.71l2.44-4.5c1.87,0.48,3.78,0.67,5.66,0.59
					l1.46,4.91c0.28,0.93,1.26,1.46,2.19,1.19l5.85-1.74c0.93-0.28,1.46-1.26,1.19-2.19l-1.46-4.91c1.62-0.96,3.11-2.16,4.42-3.58
					l4.5,2.44c0.86,0.46,1.92,0.15,2.39-0.71l2.9-5.36C210.22,169.11,209.91,168.04,209.05,167.58z M178.9,172.52
					c-6.75-3.66-9.26-12.09-5.6-18.84c3.66-6.75,12.09-9.26,18.84-5.6c6.75,3.66,9.26,12.09,5.6,18.84
					C194.08,173.67,185.65,176.17,178.9,172.52z"/>
			</g>
			<g class="st7">
				<path class="st8" d="M379.98,104.47l-5.55-3c0.59-2.31,0.82-4.66,0.72-6.98l6.05-1.8c1.15-0.34,1.8-1.55,1.46-2.7l-2.14-7.21
					c-0.34-1.15-1.55-1.8-2.7-1.46l-6.05,1.8c-1.18-2-2.66-3.84-4.42-5.45l3-5.55c0.57-1.05,0.18-2.37-0.88-2.94l-6.61-3.58
					c-1.05-0.57-2.37-0.18-2.94,0.88l-3,5.55c-2.31-0.59-4.66-0.82-6.98-0.72l-1.8-6.05c-0.34-1.15-1.55-1.8-2.7-1.46l-7.21,2.14
					c-1.15,0.34-1.8,1.55-1.46,2.7l1.8,6.05c-2,1.18-3.84,2.66-5.45,4.42l-5.55-3c-1.05-0.57-2.37-0.18-2.94,0.88l-3.58,6.61
					c-0.57,1.05-0.18,2.37,0.88,2.94l5.55,3c-0.59,2.31-0.82,4.66-0.72,6.98l-6.05,1.8c-1.15,0.34-1.8,1.55-1.46,2.7l2.14,7.21
					c0.34,1.15,1.55,1.8,2.7,1.46l6.05-1.8c1.18,2,2.66,3.84,4.42,5.45l-3,5.55c-0.57,1.05-0.18,2.37,0.88,2.94l6.61,3.58
					c1.05,0.57,2.37,0.18,2.94-0.88l3-5.55c2.31,0.59,4.66,0.82,6.98,0.72l1.8,6.05c0.34,1.15,1.55,1.8,2.7,1.46l7.21-2.14
					c1.15-0.34,1.8-1.55,1.46-2.7l-1.8-6.05c2-1.18,3.84-2.66,5.45-4.42l5.55,3c1.05,0.57,2.37,0.18,2.94-0.88l3.58-6.61
					C381.42,106.36,381.03,105.04,379.98,104.47z M342.79,110.56c-8.32-4.51-11.42-14.91-6.91-23.23
					c4.51-8.32,14.91-11.42,23.23-6.91c8.32,4.51,11.42,14.91,6.91,23.23C361.51,111.98,351.11,115.07,342.79,110.56z"/>
			</g>
		</g>
		<g>
			<g>
				<g>
					<path class="st4" d="M288.62,366.5H133.88c-4.63,0-8.38-3.75-8.38-8.38V249.67c0-4.63,3.75-8.38,8.38-8.38h154.74
						c4.63,0,8.38,3.75,8.38,8.38v108.45C297,362.75,293.25,366.5,288.62,366.5z"/>
					<path class="st9" d="M125.5,275.88v-28.23c0-3.51,2.85-6.36,6.36-6.36h158.78c3.51,0,6.36,2.85,6.36,6.36v27.56L125.5,275.88z"
						/>
					<g>
						<rect x="138.78" y="282.65" class="st9" width="18.97" height="15.18"/>
						<rect x="138.78" y="309.21" class="st10" width="18.97" height="15.18"/>
						<rect x="138.78" y="335.01" class="st10" width="18.97" height="15.18"/>
					</g>
					<g>
						<rect x="171.41" y="282.65" class="st10" width="18.97" height="15.18"/>
						<rect x="171.41" y="309.21" class="st9" width="18.97" height="15.18"/>
						<rect x="171.41" y="335.01" class="st10" width="18.97" height="15.18"/>
					</g>
					<g class="st11">
						<rect x="203.28" y="282.65" class="st12" width="18.97" height="15.18"/>
						<rect x="203.28" y="309.21" class="st12" width="18.97" height="15.18"/>
						<rect x="203.28" y="335.01" class="st9" width="18.97" height="15.18"/>
					</g>
					<g class="st13">
						<rect x="235.91" y="282.65" class="st9" width="18.97" height="15.18"/>
						<rect x="235.91" y="309.21" class="st9" width="18.97" height="15.18"/>
						<rect x="235.91" y="335.01" class="st9" width="18.97" height="15.18"/>
					</g>
					<g>
						<rect x="267.03" y="282.65" class="st14" width="18.97" height="15.18"/>
						<rect x="267.03" y="309.21" class="st9" width="18.97" height="15.18"/>
						<rect x="267.03" y="335.01" class="st14" width="18.97" height="15.18"/>
					</g>
					<circle class="st15" cx="182" cy="290" r="6"/>
					<line class="st15" x1="179.24" y1="285.5" x2="184.26" y2="294"/>
					<line class="st15" x1="186" y1="287.24" x2="177.5" y2="292.26"/>
				</g>
				<g>
					<g>
						<circle class="st16" cx="146.51" cy="254.19" r="7.59"/>
						<path class="st17" d="M146.51,256.92L146.51,256.92c-1.84,0-3.34-1.5-3.34-3.34v-21.85c0-1.84,1.5-3.34,3.34-3.34l0,0
							c1.84,0,3.34,1.5,3.34,3.34v21.85C149.85,255.42,148.34,256.92,146.51,256.92z"/>
					</g>
					<g>
						<circle class="st16" cx="168.98" cy="254.19" r="7.59"/>
						<path class="st17" d="M168.98,256.92L168.98,256.92c-1.84,0-3.34-1.5-3.34-3.34v-21.85c0-1.84,1.5-3.34,3.34-3.34l0,0
							c1.84,0,3.34,1.5,3.34,3.34v21.85C172.32,255.42,170.82,256.92,168.98,256.92z"/>
					</g>
					<g>
						<circle class="st16" cx="190.17" cy="254.19" r="7.59"/>
						<path class="st17" d="M190.17,256.92L190.17,256.92c-1.84,0-3.34-1.5-3.34-3.34v-21.85c0-1.84,1.5-3.34,3.34-3.34l0,0
							c1.84,0,3.34,1.5,3.34,3.34v21.85C193.51,255.42,192.01,256.92,190.17,256.92z"/>
					</g>
					<g>
						<circle class="st16" cx="212.64" cy="254.19" r="7.59"/>
						<path class="st17" d="M212.64,256.92L212.64,256.92c-1.84,0-3.34-1.5-3.34-3.34v-21.85c0-1.84,1.5-3.34,3.34-3.34l0,0
							c1.84,0,3.34,1.5,3.34,3.34v21.85C215.98,255.42,214.48,256.92,212.64,256.92z"/>
					</g>
					<g>
						<circle class="st16" cx="233.77" cy="254.19" r="7.59"/>
						<path class="st17" d="M233.77,256.92L233.77,256.92c-1.84,0-3.34-1.5-3.34-3.34v-21.85c0-1.84,1.5-3.34,3.34-3.34l0,0
							c1.84,0,3.34,1.5,3.34,3.34v21.85C237.11,255.42,235.61,256.92,233.77,256.92z"/>
					</g>
					<g>
						<circle class="st16" cx="256.25" cy="254.19" r="7.59"/>
						<path class="st17" d="M256.25,256.92L256.25,256.92c-1.84,0-3.34-1.5-3.34-3.34v-21.85c0-1.84,1.5-3.34,3.34-3.34l0,0
							c1.84,0,3.34,1.5,3.34,3.34v21.85C259.59,255.42,258.08,256.92,256.25,256.92z"/>
					</g>
					<g>
						<circle class="st16" cx="277.44" cy="254.19" r="7.59"/>
						<path class="st17" d="M277.44,256.92L277.44,256.92c-1.84,0-3.34-1.5-3.34-3.34v-21.85c0-1.84,1.5-3.34,3.34-3.34l0,0
							c1.84,0,3.34,1.5,3.34,3.34v21.85C280.78,255.42,279.27,256.92,277.44,256.92z"/>
					</g>
				</g>
			</g>
			<g>
				<ellipse class="st6" cx="229.16" cy="366.15" rx="44.62" ry="45.15"/>
				<ellipse class="st4" cx="229.16" cy="366.15" rx="34.3" ry="34.7"/>
				<path class="st6" d="M229.92,363.65h-1.53c-0.5,0-0.9-0.4-0.9-0.9v-21.76c0-0.5,0.4-0.9,0.9-0.9h1.53c0.5,0,0.9,0.4,0.9,0.9
					v21.76C230.82,363.25,230.42,363.65,229.92,363.65z"/>
				<path class="st6" d="M229.26,367.48v-1.53c0-0.5,0.4-0.9,0.9-0.9h17.12c0.5,0,0.9,0.4,0.9,0.9v1.53c0,0.5-0.4,0.9-0.9,0.9
					h-17.12C229.66,368.38,229.26,367.98,229.26,367.48z"/>
				<path class="st17" d="M234.15,366.15c0,2.79-2.23,5.05-4.99,5.05c-2.76,0-4.99-2.26-4.99-5.05c0-2.79,2.23-5.05,4.99-5.05
					C231.92,361.1,234.15,363.36,234.15,366.15z"/>
			</g>
			<g>
				<path class="st4" d="M133.88,194.11H94.64c-0.91,0-1.64,0.74-1.64,1.64v4.22v2.06v20.3v1.76v0.27c0,0.91,0.74,1.64,1.64,1.64
					h39.24c0.91,0,1.64-0.74,1.64-1.64v-0.34v-1.58v-21.97v-2.06v-2.66C135.53,194.84,134.79,194.11,133.88,194.11z"/>
				<g>
					<path class="st18" d="M109.53,208.37l4.3,2.26c0.26,0.13,0.56,0.13,0.81-0.01l19.11-11.25l1.44-0.85
						c0.1-0.06,0.22-0.1,0.33-0.12v-2.66c0-0.91-0.74-1.64-1.64-1.64H94.64c-0.91,0-1.64,0.74-1.64,1.64v4.22l1.04,0.53
						L109.53,208.37z"/>
					<polygon class="st18" points="93,202.03 93,222.33 108.2,209.76 					"/>
					<polygon class="st18" points="135.53,222.44 135.53,200.47 120.15,209.52 					"/>
					<path class="st18" d="M134.46,223.94l-15.99-13.43l-2.89,1.7c-0.42,0.24-0.88,0.36-1.34,0.36c-0.43,0-0.86-0.1-1.25-0.31
						l-3.03-1.59c-0.04,0.06-0.09,0.11-0.15,0.15l-15.88,13.13c-0.17,0.14-0.38,0.21-0.59,0.21c-0.12,0-0.23-0.03-0.34-0.07v0.27
						c0,0.91,0.74,1.64,1.64,1.64h39.24c0.91,0,1.64-0.74,1.64-1.64v-0.34c-0.15,0.09-0.31,0.14-0.48,0.14
						C134.84,224.16,134.63,224.09,134.46,223.94z"/>
					<path class="st19" d="M135.53,198.41c-0.11,0.02-0.23,0.05-0.33,0.12l-1.44,0.85l-19.11,11.25c-0.25,0.14-0.56,0.15-0.81,0.01
						l-4.3-2.26l-15.5-7.88L93,199.96v2.06l15.2,7.73L93,222.33v1.76c0.11,0.04,0.22,0.07,0.34,0.07c0.21,0,0.41-0.07,0.59-0.21
						l15.88-13.13c0.06-0.05,0.1-0.1,0.15-0.15l3.03,1.59c0.39,0.21,0.82,0.31,1.25,0.31c0.46,0,0.92-0.12,1.34-0.36l2.89-1.7
						l15.99,13.43c0.17,0.15,0.38,0.22,0.59,0.22c0.17,0,0.33-0.05,0.48-0.14v-1.58l-15.38-12.92l15.38-9.05V198.41z"/>
				</g>
			</g>
		</g>
	</g>
	<g>
		<circle class="st17" cx="375" cy="266" r="156"/>
		<circle class="st20" cx="375" cy="266" r="141.78"/>
		<circle class="st4" cx="375" cy="266" r="127.31"/>
		<g>
			<g>
				<path class="st21" d="M374.91,167.45h-0.25c-1.83,0-3.31-1.48-3.31-3.31v-16.57c0-1.83,1.48-3.31,3.31-3.31h0.25
					c1.83,0,3.31,1.48,3.31,3.31v16.57C378.22,165.97,376.74,167.45,374.91,167.45z"/>
				<path class="st21" d="M375.34,387.74h-0.25c-1.83,0-3.31-1.48-3.31-3.31v-16.57c0-1.83,1.48-3.31,3.31-3.31h0.25
					c1.83,0,3.31,1.48,3.31,3.31v16.57C378.65,386.26,377.17,387.74,375.34,387.74z"/>
			</g>
			<g>
				<path class="st21" d="M473.55,265.91v-0.25c0-1.83,1.48-3.31,3.31-3.31h16.57c1.83,0,3.31,1.48,3.31,3.31v0.25
					c0,1.83-1.48,3.31-3.31,3.31h-16.57C475.03,269.22,473.55,267.74,473.55,265.91z"/>
				<path class="st21" d="M253.26,266.34v-0.25c0-1.83,1.48-3.31,3.31-3.31h16.57c1.83,0,3.31,1.48,3.31,3.31v0.25
					c0,1.83-1.48,3.31-3.31,3.31h-16.57C254.74,269.65,253.26,268.17,253.26,266.34z"/>
			</g>
			<g>
				<path class="st21" d="M447.73,193.15l-0.18-0.18c-1.29-1.29-1.29-3.39,0-4.68l6.06-6.06c1.29-1.29,3.39-1.29,4.68,0l0.18,0.18
					c1.29,1.29,1.29,3.39,0,4.68l-6.06,6.06C451.11,194.44,449.02,194.44,447.73,193.15z"/>
				<path class="st21" d="M291.62,349.87l-0.18-0.18c-1.29-1.29-1.29-3.39,0-4.68l7.45-7.45c1.29-1.29,3.39-1.29,4.68,0l0.18,0.18
					c1.29,1.29,1.29,3.39,0,4.68l-7.45,7.45C295,351.16,292.91,351.16,291.62,349.87z"/>
			</g>
			<g>
				<path class="st21" d="M447.85,338.83l0.18-0.18c1.29-1.29,3.39-1.29,4.68,0l6.06,6.06c1.29,1.29,1.29,3.39,0,4.68l-0.18,0.18
					c-1.29,1.29-3.39,1.29-4.68,0l-6.06-6.06C446.56,342.21,446.56,340.12,447.85,338.83z"/>
				<path class="st21" d="M291.13,182.72l0.18-0.18c1.29-1.29,3.39-1.29,4.68,0l7.45,7.45c1.29,1.29,1.29,3.39,0,4.68l-0.18,0.18
					c-1.29,1.29-3.39,1.29-4.68,0l-7.45-7.45C289.84,186.11,289.84,184.01,291.13,182.72z"/>
			</g>
		</g>
		<g>
			<path class="st17" d="M375.09,267.97h-0.28c-2.02,0-3.65-1.64-3.65-3.65v-79.94c0-2.02,1.64-3.65,3.65-3.65h0.28
				c2.02,0,3.65,1.64,3.65,3.65v79.94C378.75,266.33,377.11,267.97,375.09,267.97z"/>
			<path class="st17" d="M371.16,270.95v-0.28c0-2.02,1.64-3.65,3.65-3.65h55.28c2.02,0,3.65,1.64,3.65,3.65v0.28
				c0,2.02-1.64,3.65-3.65,3.65h-55.28C372.8,274.61,371.16,272.97,371.16,270.95z"/>
		</g>
		<line class="st22" x1="432.33" y1="214.39" x2="375.43" y2="265.6"/>
		<circle class="st19" cx="375" cy="266" r="13.75"/>
	</g>
	<g>
		<g>
			<g>
				<path class="st23" d="M667.49,350.39v8.17c0,3.12-2.53,5.64-5.64,5.64h-19.67"/>
				<path class="st23" d="M614.81,298.05h8.17c3.11,0,5.64,2.53,5.64,5.64v19.67"/>
				<g>
					<path class="st4" d="M561.82,378h79.42c0.95,0,1.71-0.77,1.71-1.71v-51.04c0-0.95-0.77-1.71-1.71-1.71h-79.42
						c-0.95,0-1.71,0.77-1.71,1.71v51.04C560.11,377.23,560.87,378,561.82,378z"/>
					<path class="st24" d="M561.82,378h79.42c0.95,0,1.71-0.77,1.71-1.71v-51.04c0-0.95-0.77-1.71-1.71-1.71h-79.42
						c-0.95,0-1.71,0.77-1.71,1.71v51.04C560.11,377.23,560.87,378,561.82,378z"/>
				</g>
				<path class="st4" d="M572.85,348.85h57.36c0.68,0,1.23-0.55,1.23-1.23v-12.1c0-0.68-0.55-1.23-1.23-1.23h-57.36
					c-0.68,0-1.23,0.55-1.23,1.23v12.1C571.61,348.3,572.17,348.85,572.85,348.85z"/>
				<g>
					<path class="st4" d="M572.43,355.85h58.2c0.45,0,0.82-0.36,0.82-0.82l0,0c0-0.45-0.36-0.82-0.82-0.82h-58.2
						c-0.45,0-0.82,0.36-0.82,0.82l0,0C571.61,355.49,571.98,355.85,572.43,355.85z"/>
					<path class="st4" d="M572.43,360.51h58.2c0.45,0,0.82-0.36,0.82-0.82l0,0c0-0.45-0.36-0.82-0.82-0.82h-58.2
						c-0.45,0-0.82,0.36-0.82,0.82l0,0C571.61,360.15,571.98,360.51,572.43,360.51z"/>
					<path class="st4" d="M572.43,365.57h58.2c0.45,0,0.82-0.36,0.82-0.82l0,0c0-0.45-0.36-0.82-0.82-0.82h-58.2
						c-0.45,0-0.82,0.36-0.82,0.82l0,0C571.61,365.2,571.98,365.57,572.43,365.57z"/>
					<path class="st4" d="M572.43,370.23h58.2c0.45,0,0.82-0.36,0.82-0.82l0,0c0-0.45-0.36-0.82-0.82-0.82h-58.2
						c-0.45,0-0.82,0.36-0.82,0.82l0,0C571.61,369.86,571.98,370.23,572.43,370.23z"/>
				</g>
				<path class="st4" d="M658.47,351.15h18.82c0.95,0,1.71-0.77,1.71-1.71v-11.92c0-0.95-0.77-1.71-1.71-1.71h-18.82
					c-0.95,0-1.71,0.77-1.71,1.71v11.92C656.76,350.39,657.52,351.15,658.47,351.15z"/>
				<path class="st3" d="M658.47,351.15h18.82c0.95,0,1.71-0.77,1.71-1.71v-11.92c0-0.95-0.77-1.71-1.71-1.71h-18.82
					c-0.95,0-1.71,0.77-1.71,1.71v11.92C656.76,350.39,657.52,351.15,658.47,351.15z"/>
			</g>
			<g class="st25">
				<g class="st26">
					<g>
						<path class="st19" d="M612.52,308.13H509.68c-0.93,0-1.68-0.75-1.68-1.68v-64.89c0-0.93,0.75-1.68,1.68-1.68h102.84
							c0.93,0,1.68,0.75,1.68,1.68v64.89C614.2,307.37,613.45,308.13,612.52,308.13z"/>
					</g>
				</g>
				<g>
					<path class="st4" d="M597.42,257.05h-75.46c-0.28,0-0.5-0.23-0.5-0.5c0-0.28,0.23-0.5,0.5-0.5h75.46c0.28,0,0.5,0.23,0.5,0.5
						C597.92,256.82,597.7,257.05,597.42,257.05z"/>
					<path class="st4" d="M552.83,277.31h-30.87c-0.28,0-0.5-0.23-0.5-0.5c0-0.28,0.23-0.5,0.5-0.5h30.87c0.28,0,0.5,0.23,0.5,0.5
						C553.33,277.09,553.1,277.31,552.83,277.31z"/>
					<path class="st4" d="M552.83,289.4h-30.87c-0.28,0-0.5-0.23-0.5-0.5c0-0.28,0.23-0.5,0.5-0.5h30.87c0.28,0,0.5,0.23,0.5,0.5
						C553.33,289.17,553.1,289.4,552.83,289.4z"/>
					<g>
						<path class="st4" d="M561.4,265.1h-39.45c-0.28,0-0.5-0.23-0.5-0.5c0-0.28,0.23-0.5,0.5-0.5h39.45c0.28,0,0.5,0.23,0.5,0.5
							C561.91,264.87,561.68,265.1,561.4,265.1z"/>
						<path class="st4" d="M596.61,265.3h-27.47c-0.45,0-0.81-0.27-0.81-0.6c0-0.33,0.36-0.6,0.81-0.6h27.47
							c0.45,0,0.81,0.27,0.81,0.6C597.42,265.03,597.06,265.3,596.61,265.3z"/>
					</g>
				</g>
				<path class="st4" d="M596.09,294.36h-34.26c-1.1,0-2-0.9-2-2v-19.49c0-1.1,0.9-2,2-2h34.26c1.1,0,2,0.9,2,2v19.49
					C598.09,293.46,597.19,294.36,596.09,294.36z"/>
				<g>
					<path class="st27" d="M563.85,287.66l2.09-6.28c0.17-0.5,0.82-0.64,1.18-0.25l5.83,6.32c0.35,0.38,0.99,0.26,1.17-0.23
						l3.49-9.49c0.19-0.51,0.87-0.62,1.21-0.19l7.87,9.97c0.3,0.38,0.88,0.35,1.14-0.06l6.88-10.89"/>
					<polyline class="st27" points="592.56,276.85 595.03,276.23 595.03,278.7 					"/>
				</g>
			</g>
		</g>
		<g>
			<g>
				<g class="st28">
					<g>
						<path class="st29" d="M602.95,208.67l-3.6-1.95c0.35-1.44,0.47-2.91,0.38-4.36l3.86-1.05c0.73-0.2,1.14-0.95,0.91-1.67
							l-1.46-4.54c-0.23-0.72-1.02-1.15-1.75-0.95l-3.86,1.05c-0.78-1.26-1.76-2.44-2.9-3.47l1.86-3.44
							c0.35-0.65,0.09-1.48-0.6-1.85l-4.29-2.32c-0.68-0.37-1.53-0.14-1.88,0.51l-1.86,3.44c-1.49-0.4-3-0.57-4.49-0.54l-1.23-3.81
							c-0.23-0.72-1.02-1.15-1.75-0.95l-4.6,1.26c-0.73,0.2-1.14,0.95-0.91,1.67l1.23,3.81c-1.27,0.72-2.43,1.62-3.45,2.7l-3.6-1.95
							c-0.68-0.37-1.52-0.14-1.88,0.51l-2.22,4.1c-0.35,0.65-0.09,1.48,0.6,1.85l3.6,1.95c-0.35,1.44-0.47,2.91-0.38,4.36
							l-3.86,1.05c-0.73,0.2-1.14,0.95-0.91,1.67l1.46,4.54c0.23,0.72,1.02,1.15,1.75,0.95l3.86-1.05c0.78,1.26,1.76,2.44,2.9,3.47
							l-1.86,3.44c-0.35,0.65-0.09,1.48,0.6,1.85l4.29,2.32c0.68,0.37,1.53,0.14,1.88-0.51l1.86-3.44c1.49,0.4,3,0.57,4.49,0.54
							l1.23,3.81c0.23,0.72,1.02,1.15,1.75,0.95l4.6-1.26c0.73-0.2,1.14-0.95,0.91-1.67l-1.23-3.81c1.27-0.72,2.43-1.62,3.45-2.7
							l3.6,1.95c0.68,0.37,1.53,0.14,1.88-0.51l2.22-4.1C603.9,209.87,603.64,209.04,602.95,208.67z M579.15,212.04
							c-5.4-2.92-7.51-9.48-4.71-14.64c2.79-5.16,9.44-6.97,14.83-4.05c5.4,2.92,7.51,9.48,4.71,14.64
							C591.19,213.15,584.55,214.96,579.15,212.04z"/>
					</g>
				</g>
				<g class="st30">
					<path class="st4" d="M635.76,155.89l-5.84-3.17c0.62-2.43,0.87-4.91,0.76-7.35l6.37-1.9c1.21-0.36,1.9-1.63,1.54-2.85
						l-2.26-7.6c-0.36-1.21-1.63-1.9-2.84-1.54l-6.37,1.9c-1.25-2.1-2.81-4.04-4.66-5.74l3.17-5.84c0.6-1.11,0.19-2.5-0.92-3.1
						l-6.97-3.77c-1.11-0.6-2.5-0.19-3.1,0.92l-3.17,5.84c-2.43-0.62-4.91-0.87-7.35-0.76l-1.9-6.37c-0.36-1.21-1.63-1.9-2.84-1.54
						l-7.6,2.26c-1.21,0.36-1.9,1.63-1.54,2.85l1.9,6.37c-2.1,1.25-4.04,2.81-5.74,4.66l-5.84-3.17c-1.11-0.6-2.5-0.19-3.1,0.92
						l-3.77,6.97c-0.6,1.11-0.19,2.5,0.92,3.1l5.84,3.17c-0.62,2.43-0.87,4.91-0.76,7.35l-6.37,1.9c-1.21,0.36-1.9,1.63-1.54,2.85
						l2.26,7.6c0.36,1.21,1.63,1.9,2.85,1.54l6.37-1.9c1.25,2.1,2.81,4.04,4.66,5.74l-3.17,5.84c-0.6,1.11-0.19,2.5,0.92,3.1
						l6.97,3.77c1.11,0.6,2.5,0.19,3.1-0.92l3.17-5.84c2.43,0.62,4.91,0.87,7.35,0.76l1.9,6.37c0.36,1.21,1.63,1.9,2.85,1.54
						l7.6-2.26c1.21-0.36,1.9-1.63,1.54-2.84l-1.9-6.37c2.1-1.25,4.04-2.81,5.74-4.66l5.84,3.17c1.11,0.6,2.5,0.19,3.1-0.92
						l3.77-6.97C637.28,157.88,636.87,156.49,635.76,155.89z M596.57,162.31c-8.77-4.75-12.03-15.71-7.28-24.48
						c4.75-8.77,15.71-12.03,24.48-7.28c8.77,4.75,12.03,15.71,7.28,24.48C616.3,163.8,605.34,167.06,596.57,162.31z"/>
				</g>
				<rect x="521.97" y="83.7" class="st17" width="26.28" height="15.2"/>
				<path class="st19" d="M550.49,88.45h-30.77c-1.09,0-1.98-0.89-1.98-1.98v-6.48c0-1.09,0.89-1.98,1.98-1.98h30.77
					c1.09,0,1.98,0.89,1.98,1.98v6.48C552.47,87.56,551.59,88.45,550.49,88.45z"/>
				<ellipse class="st9" cx="535.11" cy="159.37" rx="62.89" ry="63.63"/>
				<ellipse class="st4" cx="535.11" cy="159.37" rx="48.34" ry="48.91"/>
				<path class="st1" d="M578.29,180.77c-7.85,16.29-24.37,27.51-43.48,27.51c-18.61,0-34.76-10.64-42.84-26.24
					c-1.75-3.38,19.55-22.41,41.9-22.7C556.33,159.06,579.85,177.53,578.29,180.77z"/>
				<path class="st20" d="M562.07,191.1c-4.9,10.17-15.21,17.18-27.15,17.18c-11.62,0-21.7-6.64-26.75-16.38
					c-1.09-2.11,12.21-13.99,26.16-14.17C548.36,177.55,563.04,189.08,562.07,191.1z"/>
				<path class="st9" d="M536.55,155.85h-2.89c-0.5,0-0.9-0.4-0.9-0.9v-31.41c0-0.5,0.4-0.9,0.9-0.9h2.89c0.5,0,0.9,0.4,0.9,0.9
					v31.41C537.45,155.45,537.05,155.85,536.55,155.85z"/>
				<ellipse class="st17" cx="535.11" cy="159.37" rx="7.03" ry="7.12"/>
			</g>
			<g>
				<path class="st4" d="M637.92,199h-25.84c-0.6,0-1.08,0.48-1.08,1.08v2.78v1.36v13.37v1.16v0.18c0,0.6,0.48,1.08,1.08,1.08h25.84
					c0.6,0,1.08-0.48,1.08-1.08v-0.22v-1.04v-14.47v-1.35v-1.75C639,199.48,638.52,199,637.92,199z"/>
				<g>
					<path class="st18" d="M621.89,208.39l2.83,1.49c0.17,0.09,0.37,0.09,0.54-0.01l12.58-7.4l0.95-0.56
						c0.07-0.04,0.14-0.07,0.22-0.08v-1.75c0-0.6-0.48-1.08-1.08-1.08h-25.84c-0.6,0-1.08,0.48-1.08,1.08v2.78l0.68,0.35
						L621.89,208.39z"/>
					<polygon class="st18" points="611,204.22 611,217.58 621.01,209.31 					"/>
					<polygon class="st18" points="639,217.66 639,203.19 628.87,209.15 					"/>
					<path class="st18" d="M638.3,218.65l-10.53-8.85l-1.91,1.12c-0.28,0.16-0.58,0.23-0.88,0.23c-0.28,0-0.56-0.07-0.82-0.2
						l-2-1.05c-0.03,0.04-0.06,0.07-0.1,0.1l-10.46,8.64c-0.11,0.09-0.25,0.14-0.39,0.14c-0.08,0-0.15-0.02-0.22-0.05v0.18
						c0,0.6,0.48,1.08,1.08,1.08h25.84c0.6,0,1.08-0.48,1.08-1.08v-0.22c-0.1,0.06-0.2,0.09-0.31,0.09
						C638.55,218.79,638.41,218.74,638.3,218.65z"/>
					<path class="st19" d="M639,201.83c-0.07,0.01-0.15,0.04-0.22,0.08l-0.95,0.56l-12.58,7.4c-0.17,0.09-0.37,0.1-0.54,0.01
						l-2.83-1.49l-10.2-5.19l-0.68-0.35v1.36l10.01,5.09L611,217.58v1.16c0.07,0.03,0.15,0.05,0.22,0.05c0.14,0,0.27-0.05,0.39-0.14
						l10.46-8.64c0.04-0.03,0.07-0.07,0.1-0.1l2,1.05c0.26,0.14,0.54,0.2,0.82,0.2c0.3,0,0.6-0.08,0.88-0.23l1.91-1.12l10.53,8.85
						c0.11,0.1,0.25,0.14,0.39,0.14c0.11,0,0.22-0.03,0.31-0.09v-1.04l-10.13-8.51l10.13-5.96V201.83z"/>
				</g>
			</g>
		</g>
	</g>
	<g>
		<g>
			<g>
				<g>
					<g>
						<path class="st21" d="M507.84,412.13l0.16,0l-0.03,1.62L490.4,414l0.02-1.19c0-0.19,0.12-0.34,0.27-0.4
							c0.04-0.02,0.09-0.03,0.13-0.03L507.84,412.13z"/>
						<path class="st21" d="M501.68,406.23l5.32-0.06c0.13,0,0.25,0.04,0.35,0.11c0.04,0.03,0.07,0.06,0.11,0.1
							c0.09,0.11,0.15,0.25,0.16,0.41l0.03,0.62l0.09,2l0.12,2.73l-17.01,0.25c-0.05,0-0.09,0.01-0.13,0.03
							c0.38-1.24,1.35-2.21,2.57-2.48l3.89-0.3c0.92-0.47,1.72-0.89,2.63-1.36l1.58-1.95c0.03-0.02,0.06-0.03,0.1-0.04
							c0.03-0.01,0.05-0.02,0.08-0.03C501.59,406.23,501.64,406.23,501.68,406.23z"/>
					</g>
					<g>
						<path class="st21" d="M534.28,412.18l0.16,0l-0.04,1.62l-17.57,0.14l0.03-1.19c0.01-0.19,0.12-0.34,0.28-0.4
							c0.04-0.02,0.09-0.03,0.13-0.03L534.28,412.18z"/>
						<path class="st21" d="M528.16,406.24l5.32-0.03c0.13,0,0.25,0.04,0.35,0.12c0.04,0.03,0.07,0.06,0.1,0.1
							c0.09,0.11,0.15,0.25,0.16,0.41l0.02,0.62l0.07,2l0.1,2.73l-17.01,0.14c-0.05,0-0.09,0.01-0.13,0.03
							c0.39-1.23,1.37-2.2,2.59-2.47l3.9-0.28c0.92-0.47,1.72-0.88,2.64-1.34l1.59-1.94c0.03-0.02,0.06-0.03,0.1-0.04
							c0.03-0.01,0.05-0.02,0.08-0.03C528.07,406.25,528.11,406.24,528.16,406.24z"/>
					</g>
				</g>
				<g>
					<g>
						<path class="st31" d="M440.99,207.05c0.16-0.58,0.76-0.91,1.34-0.75l0.95,0.27c0.01-0.04,0.01-0.08,0.02-0.12l-1.51-0.37
							c-0.67-0.16-1.16-0.86-0.91-1.5c0.5-1.28,1.55-0.8,2.22-0.64l0.8,0.28c-0.02-0.02-1.37-0.55-1.39-0.57
							c-0.18-0.23-0.28-0.53-0.23-0.84c0.09-0.59,0.64-1,1.24-0.9l3.8,0.59c2.26,0.18,5.25,0.58,6.61,0.95l-1.4-3.1
							c-0.31-0.68,0-1.48,0.68-1.79c0.68-0.31,1.48,0,1.79,0.68l2.5,5.54c0.4,0.62,0.69,1.12,0.75,1.32
							c0.22,0.76,2.26,4.98,2.26,4.98l-5.12,1.7c0,0-7.74-2.35-10.92-3.62l-2.72-0.77C441.17,208.22,440.83,207.62,440.99,207.05z"
							/>
						<path class="st32" d="M453.9,203.57c0-0.01-0.01-0.01-0.02-0.02c-0.07-0.08-0.2-0.09-0.28-0.02c-0.7,0.61-1.06,1.29-1.07,2.02
							c-0.01,1.22,0.98,2.12,1.02,2.16c0.08,0.07,0.21,0.07,0.28-0.02c0.07-0.08,0.07-0.21-0.01-0.28c-0.01-0.01-0.9-0.82-0.89-1.86
							c0.01-0.61,0.32-1.19,0.93-1.73C453.94,203.76,453.95,203.65,453.9,203.57z"/>
					</g>
					<path class="st9" d="M518.27,233.16h-2.03h-5.41h-2.03c-3.65,0-7.64,1.71-11.02,4.13c-5.64-0.38-12.7-0.97-14.05-2.04
						c-2.08-1.64-19.21-22.02-22.97-26.5c-0.41-0.49-1.13-0.57-1.64-0.19l-4.74,3.57c-0.5,0.38-0.63,1.07-0.29,1.6
						c3.37,5.26,19.94,31.01,22.52,32.57c1.13,0.68,6.97,2.85,13.66,5.23l1.44,8.42c2.17,12.65,2.64,25.54,1.4,38.32l-0.69,7.05
						c0,0.53-0.55,0.96,0.01,0.96h41.18c0.56,0-2.63-14.73-2.63-15.26l5.9-40.78C538.28,239.72,527.86,233.16,518.27,233.16z"/>
				</g>
				<g>
					<path class="st31" d="M457.76,262.78c-0.13-0.4,0.15-0.79,0.57-0.79l4.75-0.04l-5.51-0.7c-0.33-0.04-0.58-0.32-0.58-0.64
						l0-0.07c-0.01-0.35,0.28-0.62,0.64-0.61l5.42,0.22l-4.46-0.81c-0.36-0.07-0.6-0.4-0.54-0.75l0.03-0.15
						c0.06-0.31,0.35-0.52,0.68-0.49l4.28,0.48c0.03,0,0.07,0,0.1,0l3.32-0.13c0.51-0.02,0.77-0.59,0.45-0.99l-1.66-2.12
						c-0.2-0.26-0.18-0.61,0.05-0.83l0.08-0.08c0.22-0.2,0.56-0.22,0.81-0.04l3.45,2.42c1.89,1.21,2.79,2.22,3.19,2.98l-0.49,6.39
						c-0.02,0.02-0.05,0.01-0.08,0.01c-2.23,0.14-8.09-0.45-8.57-0.5c-0.02,0-0.04,0-0.07,0l-3.62,0.01c-0.39,0-0.71-0.34-0.66-0.73
						c0.03-0.27,0.24-0.47,0.51-0.52l3.25-0.51l-4.7-0.39c-0.27-0.02-0.5-0.2-0.58-0.45L457.76,262.78z"/>
					<g>
						<path class="st9" d="M532.1,240.55c-2.95-2.18-7.05-1.81-9.59,0.84c0,0-0.01,0.01-0.01,0.01
							c-2.32,2.4-12.08,14.27-14.63,14.92c-2.57,0.65-29.17,1.82-35.01,2.07c-0.64,0.03-1.14,0.55-1.14,1.18l-0.05,5.93
							c-0.01,0.63,0.47,1.15,1.09,1.2c6.21,0.53,36.74,3.08,39.55,1.98c1.5-0.58,11.34-6.94,19.42-12.22
							c5.6-3.67,5.89-11.81,0.52-15.81C532.2,240.62,532.15,240.58,532.1,240.55z"/>
						<path class="st33" d="M472.76,266.7c6.21,0.53,36.74,3.08,39.55,1.98c0.69-0.27,3.12-1.74,6.34-3.77"/>
						<path class="st33" d="M532.1,240.55c-2.95-2.18-7.05-1.81-9.59,0.84c0,0-0.01,0.01-0.01,0.01
							c-2.32,2.4-12.08,14.27-14.63,14.92c-2.57,0.65-29.17,1.82-35.01,2.07"/>
					</g>
				</g>
				<path class="st21" d="M492.97,294.15c0.02-1.2,0.98-1.17,2.18-1.2l34.89-0.89c1.21-0.03,2.26,0.84,2.44,2.04
					c0,0,1.85,15.19,1.97,22.05l0.57,89.19c0.01,1.31-1.06,2.38-2.37,2.38l-7.43-0.01c-1.4,0-2.57-1.07-2.7-2.46l-7.25-78.39
					c-0.08-1.17-1.05-2.08-2.23-2.08h0c-1.23,0-2.23,0.99-2.24,2.23l-2.32,78.73c-0.03,1.1-0.94,1.98-2.04,1.98l-7.42-0.01
					c-1.06,0-1.94-0.84-1.99-1.9l-4.73-95.87C492.2,307.21,492.97,294.15,492.97,294.15z"/>
			</g>
		</g>
		<g>
			<path class="st21" d="M528.67,213.19c0.04-0.15,0.11-0.3,0.18-0.44c0.71-1.5,1.64-3,1.37-4.73c-0.19-1.21-0.95-2.2-1.86-2.99
				c-1.07-0.93-1.64-1.71-1.86-3.18c-0.18-1.27-0.17-2.63-0.81-3.75c-0.45-0.79-1.18-1.38-1.93-1.89c-2-1.35-4.4-2.27-6.83-2.28
				c-1.29,0-2.29,0.51-3.5,0.73c-0.72,0.13-1.13-0.18-1.86-0.34c-0.67-0.15-1.35-0.23-2.03-0.25c-1.55-0.04-3.1,0.29-4.53,0.88
				c-3.01,1.26-7.02,4.25-7.84,7.6c-0.29,1.2-0.16,2.49-0.61,3.63c-0.89,2.27-3.57,2.67-5.16,4.3c-1.01,1.03-1.67,2.53-1.33,3.94
				c0.19,0.78,0.66,1.48,0.76,2.27c0.1,0.77-0.17,1.55-0.52,2.24c-0.88,1.74-2.31,3.37-2.21,5.31c0.04,0.82,0.37,1.59,0.75,2.32
				c4.66,8.88,16.87,9.92,25.69,8.73c5.35-0.72,10.98-2.3,15.25-5.73c1.71-1.37,3.24-3.18,3.57-5.34c0.58-3.81-2.42-6.95-4.37-9.87
				c-0.18-0.26-0.36-0.55-0.37-0.86C528.62,213.39,528.64,213.29,528.67,213.19z"/>
			<g>
				<g>
					<g>
						<path class="st31" d="M520.74,211.41l0.63,0.04c1.45,0.09,2.55,1.33,2.46,2.78l-0.16,2.62c-0.09,1.45-1.33,2.55-2.78,2.46
							l-1.13-0.07c-0.07,0.01-0.13,0.04-0.2,0.05l-1.28,17.41c-0.75,3.74-3.78,6.29-6.93,5.84c-3.38-0.48-5.6-4.22-4.92-8.25
							l0.07-3.56c-4.69-0.29-10.01-4.73-9.41-10.59l1.21-11.82c0.07-0.64,0.27-1.23,0.56-1.76c4.58,3.96,7.71-2.18,10.48-2.45
							c6.35-0.62,9.16,1.71,10.54,7.31C520.01,211.94,520.74,211.44,520.74,211.41z"/>
					</g>
					<polygon class="st34" points="514.93,230.78 506.49,230.92 506.43,233.94 					"/>
				</g>
				<path class="st21" d="M508.64,198.34c-0.78,0.89-1.18,2.34-1.03,3.49c0.43,3.34,4.24,3.7,6.38,5.48
					c0.96,0.8,1.69,1.97,1.65,3.22c-0.07,2.24-2.47,3.81-2.8,6.04c-0.27,1.83,1.37,2.77,1.71,4.42c0.26,1.28-0.52,2.51-1.21,3.63
					c-0.75,1.22-1.91,1.96-1.76,3.58c0.11,1.15,0.87,2.18,1.84,2.81c0.97,0.63,2.13,0.91,3.29,1.01c2.22,0.19,4.42,0,6.6-0.44
					c3.85-0.78,8.24-3.47,10.02-7.1c2.18-4.44-5.41-9.73-4.67-11.27c0.74-1.54,3.42-5.18-0.37-8.17c-3.42-2.69,0.5-3.68-3.93-8.36
					C522.44,194.64,515.81,190.16,508.64,198.34z"/>
				<g>
					<g>
						<g>
							<g>
								<g>
									<path class="st21" d="M501.86,212.94c-0.2,0.09-0.44,0.04-0.68,0.01c-0.24-0.04-0.48-0.07-0.7-0.08
										c-0.21-0.02-0.46-0.02-0.7-0.02c-0.24-0.01-0.49,0.01-0.67-0.11c-0.18-0.11-0.23-0.4,0-0.73c0.22-0.32,0.77-0.65,1.48-0.6
										c0.7,0.05,1.2,0.46,1.38,0.81C502.15,212.59,502.05,212.86,501.86,212.94z"/>
								</g>
								<g>
									<path class="st21" d="M510.25,213.46c-0.2,0.09-0.44,0.04-0.68,0.01c-0.24-0.04-0.48-0.07-0.7-0.08
										c-0.21-0.02-0.46-0.02-0.7-0.02c-0.24-0.01-0.49,0.01-0.67-0.11c-0.18-0.11-0.23-0.4,0-0.73c0.22-0.32,0.77-0.65,1.48-0.6
										c0.7,0.05,1.2,0.46,1.38,0.81C510.53,213.1,510.44,213.37,510.25,213.46z"/>
								</g>
								<path class="st21" d="M499.97,216.38L499.97,216.38c-0.3-0.03-0.52-0.29-0.49-0.59l0.11-1.08c0.03-0.3,0.29-0.52,0.59-0.49
									l0,0c0.3,0.03,0.52,0.3,0.49,0.59l-0.11,1.08C500.54,216.2,500.27,216.41,499.97,216.38z"/>
								<path class="st21" d="M508.09,217.17L508.09,217.17c-0.3-0.03-0.52-0.29-0.49-0.59l0.11-1.08c0.03-0.3,0.3-0.52,0.59-0.49
									l0,0c0.3,0.03,0.52,0.3,0.49,0.59l-0.11,1.08C508.65,216.98,508.39,217.2,508.09,217.17z"/>
							</g>
						</g>
						<path class="st35" d="M504.19,214.56l-1.62,2.42c-0.48,0.83,0.08,1.87,1.04,1.93l0.87,0.05"/>
						<g>
							<path class="st21" d="M507.64,223.79l-2.11-0.13c-0.49-0.03-0.87-0.46-0.84-0.95l0.13-2.1l4.99,0.3l-0.06,1.01
								C509.68,223.02,508.74,223.86,507.64,223.79z"/>
							<path class="st9" d="M507.64,223.79l-0.11-0.01c-0.49-0.03-0.86-0.63-0.84-0.95c0.07-1.1,3.06-0.91,3.06-0.91l0,0
								C509.68,223.02,508.74,223.86,507.64,223.79z"/>
						</g>
					</g>
				</g>
			</g>
		</g>
	</g>
</g>
</svg>
