<svg xmlns="http://www.w3.org/2000/svg" viewBox="0 0 443.53 363.14"><defs><style>.cls-1{fill:#ffe5d2;}.cls-2{fill:#fff;}.cls-3{fill:#f97a5d;}.cls-4{fill:#6e5395;}.cls-5{fill:#e0a584;}.cls-6{fill:#1d262d;}.cls-7{fill:#2c373f;}.cls-8{fill:#ffc5b1;}.cls-9{fill:#f4b19f;}.cls-10{fill:#eda091;}.cls-11{fill:#5d4484;}</style></defs><title>new-user</title><g id="BACKGROUND"><path class="cls-1" d="M168.54,326.61c23.65,3.05,47.5,3.5,71.29,4.41,10.91.42,21.61-.08,31.68,3.83,9.43,3.67,17,11,26.69,14.17,7.56,2.45,15.7,2.36,23.59,1.47A119.66,119.66,0,0,0,426.48,213.1c-2.82-18.43-11.3-35.61-13.33-54.17-2.15-19.62,5.34-36.73,10.08-55.39a142.36,142.36,0,0,0,4.27-39.91c-.27-7.73-1.24-15.66-4.9-22.47-9.93-18.51-35-22-55.89-19.92a195.71,195.71,0,0,0-74.46,23.14c-18,9.92-35.78,24.37-56.41,28.29-23.26,4.41-41.25-11.53-62.19-18.8-47.1-16.36-104,15.78-124.74,58.52C23.28,165.16,26.2,251.48,74.18,290.64c26.15,21.34,59.84,31.42,93.3,35.84Z" transform="translate(-6.46 -8.96)"/></g><g id="OBJECTS"><path class="cls-2" d="M360.19,261.19a6.23,6.23,0,0,1,1.22,1.76,32.09,32.09,0,0,1,2.33,5.36,48.65,48.65,0,0,1,2,19.07,96.05,96.05,0,0,1-3.67,18.81c-1.37,4.69-2.38,7.54-2.56,7.5s.49-3,1.62-7.75a124.72,124.72,0,0,0,3.24-18.66,54.28,54.28,0,0,0-1.59-18.69C361.5,263.94,360,261.3,360.19,261.19Z" transform="translate(-6.46 -8.96)"/><path class="cls-2" d="M364.82,223.58a15.68,15.68,0,0,1,1.57,2.87c.93,1.88,2.24,4.63,3.79,8.05a185.17,185.17,0,0,1,10.19,27.56,105.32,105.32,0,0,1,3,15.95,79.8,79.8,0,0,1,.31,13.25,60,60,0,0,1-1.19,8.86,13.16,13.16,0,0,1-.89,3.15c-.25,0,.87-4.59,1.11-12a100.26,100.26,0,0,0-3.65-28.8,226.29,226.29,0,0,0-9.76-27.54c-1.42-3.46-2.58-6.27-3.37-8.21A14.23,14.23,0,0,1,364.82,223.58Z" transform="translate(-6.46 -8.96)"/><path class="cls-2" d="M193.47,267.72c.16.17-1.39,1.66-3.42,4.42-.5.69-1,1.45-1.55,2.32s-1.05,1.79-1.59,2.77a43,43,0,0,0-2.69,6.8,41.89,41.89,0,0,0-1.33,7.18c-.07,1.13-.17,2.2-.14,3.2a27.38,27.38,0,0,0,.09,2.79c.24,3.41.77,5.5.55,5.56s-1-2-1.52-5.46a24.07,24.07,0,0,1-.26-2.87c-.08-1,0-2.14,0-3.31a34.32,34.32,0,0,1,4.17-14.48c.6-1,1.14-2,1.75-2.81a22.78,22.78,0,0,1,1.75-2.29C191.57,268.85,193.38,267.61,193.47,267.72Z" transform="translate(-6.46 -8.96)"/><path class="cls-2" d="M197.13,279.76c.12.18-.75.85-1.89,2.12a17.31,17.31,0,0,0-1.77,2.38,18.71,18.71,0,0,0-1.55,3.27,19,19,0,0,0-.79,3.53,17,17,0,0,0-.08,3c.12,1.69.39,2.75.19,2.83s-.77-.91-1.15-2.71a12.59,12.59,0,0,1-.22-3.2,14.35,14.35,0,0,1,2.54-7.38,13.23,13.23,0,0,1,2.15-2.39C196,280,197.05,279.62,197.13,279.76Z" transform="translate(-6.46 -8.96)"/><path class="cls-2" d="M146.37,167.56c.07-.06.68.54,1.74,1.7a26.74,26.74,0,0,1,1.84,2.17c.67.88,1.49,1.86,2.25,3l1.24,1.82c.43.63.81,1.33,1.24,2,.88,1.4,1.67,3,2.53,4.62a75.18,75.18,0,0,1,4.4,11.22A76.27,76.27,0,0,1,164,206c.17,1.85.36,3.6.38,5.25,0,.83.08,1.62.07,2.39s0,1.49-.05,2.19c0,1.4-.16,2.67-.25,3.77a26.31,26.31,0,0,1-.36,2.83,8.56,8.56,0,0,1-.54,2.37c-.24,0,.21-3.45.17-9q0-1,0-2.16c0-.76-.1-1.54-.14-2.35-.07-1.62-.31-3.34-.51-5.15a82.63,82.63,0,0,0-2.47-11.58,84.06,84.06,0,0,0-4.22-11.06c-.81-1.63-1.55-3.2-2.38-4.6-.4-.7-.76-1.4-1.15-2s-.78-1.26-1.15-1.84C148.42,170.34,146.18,167.72,146.37,167.56Z" transform="translate(-6.46 -8.96)"/><path class="cls-2" d="M161.93,174c.11-.1,1.69,1.38,3.7,4.22a41.36,41.36,0,0,1,3.11,5.26A43.81,43.81,0,0,1,173,197.79a41.53,41.53,0,0,1,.24,6.1c-.14,3.48-.66,5.58-.81,5.55s-.05-2.15-.16-5.55a53,53,0,0,0-.53-5.94,56.36,56.36,0,0,0-1.56-7.11,55.5,55.5,0,0,0-2.56-6.83,52.08,52.08,0,0,0-2.78-5.27C163.06,175.82,161.75,174.14,161.93,174Z" transform="translate(-6.46 -8.96)"/><path class="cls-3" d="M67.7,84.38a3.2,3.2,0,0,0-1.06,3.9c1.06,2.44,5.68,9.66,11.93,9.42.26,0-7.87-13.32-7.87-13.32Z" transform="translate(-6.46 -8.96)"/><path class="cls-4" d="M58.13,217.6s-7.82-7-10.32-5.74c-3.06,1.53-20.56,18.68-19.88,26.76.28,3.31,4.14.48,11-6.64a15.36,15.36,0,0,1,15.51-4.07Z" transform="translate(-6.46 -8.96)"/><path class="cls-4" d="M77.13,229.38l-9.44-5.67s-24.47,22.94-20.64,26c2.89,2.32,4.6.24,11.46-6.88s15.56-3,15.56-3Z" transform="translate(-6.46 -8.96)"/><polygon class="cls-5" points="128.32 144.96 130.09 170.09 90.8 159.85 128.32 144.96"/><path class="cls-6" d="M97.26,169.68s34.37,2.17,38.94.64c0,0,6.72,66-5.23,73.1s-38.77-3.31-38.77-3.31l7.24-14.24,15.61-1V199.43l-1.12.26Z" transform="translate(-6.46 -8.96)"/><path class="cls-7" d="M54.18,214.69s-8.64,3.56-5.84,12.2c0,0,29.5,23.14,43.86,17.8,8-3,16.68-25.81,22.73-45.31l21.27-29.06s-10,.5-13.38.49c-6.39,0-25.56-1.13-25.56-1.13s-10,52.38-13.58,53.65S54.18,214.69,54.18,214.69Z" transform="translate(-6.46 -8.96)"/><path class="cls-8" d="M105.27,104s20.59-19.33,24.15-24.41S140.61,57.46,150,50.34l-4.58-9.66s2.8-1.53,4.58,2.54c0,0,6.61-13.22,8.13-13s-3.05,10.17-3.05,10.17,6.36-9.15,8.14-8.89-4.58,10.29-4.58,10.29,7.12-8.26,8.14-7.24-5.59,7.24-5.59,7.24,7.11-4.09,7.88-2.74S162,44,162,44s-.76,5.85-5.59,8.39c0,0-9.57,25.84-18.21,34.24L110.4,115.47Z" transform="translate(-6.46 -8.96)"/><path class="cls-8" d="M80.68,114s-19.51,20.42-24.63,23.93-22.22,11-29.43,20.32L17,153.58s-1.55,2.79,2.5,4.6c0,0-13.28,6.49-13,8s10.2-3,10.2-3-9.22,6.27-9,8S18,166.81,18,166.81s-8.32,7.05-7.31,8.07S18,169.36,18,169.36s-4.15,7.08-2.81,7.85,5-7.07,5-7.07,5.86-.71,8.44-5.52c0,0,24.48-9.73,33-18.3L92,124.74Z" transform="translate(-6.46 -8.96)"/><path class="cls-2" d="M88,105.87l-9.87,9.66,2.5,10.89s9.73,23.35,11.2,29c2.28,8.86-1.41,22.36-1.41,22.36s16.48-1.37,31.48-1.88,19.91-5.34,19.91-5.34-13-43.31-22-55.42-12.24-15.89-12.24-15.89l-13.22,2.88Z" transform="translate(-6.46 -8.96)"/><path class="cls-2" d="M117,113.75l10.28-6.57s1.57-7-10.83-15.34L101.88,101Z" transform="translate(-6.46 -8.96)"/><path class="cls-2" d="M80.21,114.77c-5.64.79-15.94,15.08-17.09,15,0,0,7.25,11.83,13,12.22C76.11,142,101.39,111.8,80.21,114.77Z" transform="translate(-6.46 -8.96)"/><path class="cls-8" d="M100.11,105.47s-8.19-6.12-7.91-8.57c.07-.61,1.21-1.61,1.5-2.49,1.59-4.77-6.07-17-10.78-19.64-3.7-2-2.08-2.22-9.87,2.41S69.7,89.82,73.18,94c3.29,3.92,7.06,5.6,10.45,5.88l4.82,10.7Z" transform="translate(-6.46 -8.96)"/><path class="cls-8" d="M85.32,114c-1.55-3.8,1.39-8.59,6.56-10.7s10.62-.74,12.17,3.06-3.65,9.52-6.56,10.7S86.87,117.77,85.32,114Z" transform="translate(-6.46 -8.96)"/><path class="cls-8" d="M73.18,94s-2.66-.14-3,1.63S75.1,97.36,77,96Z" transform="translate(-6.46 -8.96)"/><path class="cls-3" d="M74.51,95.59c-.51-3.2-3.92-5.58-3.75-8.7,1.64,0,2.69-2,1.94-3.75-.29-.68-.79-1.26-1.1-1.93s-.4-1.55.08-1.93a1.68,1.68,0,0,1,.84-.24c2.42-.25,6.58.48,8.81-.34s4.4-2.32,4.18-4.93c-.2-2.26-2.2-4.1-4-5.49-1.06-.79-4.07-2.87-5.2-2.68-1.73.28-2.15,2.6-2.28,4.53a3,3,0,0,0-4,0,8.46,8.46,0,0,0-2,3.87,8.81,8.81,0,0,1-2,3.9c-1,.89-2.5,1.56-2.3,3.08.24,1.81,2.6,2.45,3.69,4-.27-.38-.5,2-.34,2.45.46,1.23,1.63,2,2.47,3C71.26,92.39,72.13,94.41,74.51,95.59Z" transform="translate(-6.46 -8.96)"/><path class="cls-2" d="M89.36,88.27,83.3,91.4S90.57,96.68,89.36,88.27Z" transform="translate(-6.46 -8.96)"/><path class="cls-9" d="M81,89.51c.34.63-.15,1.54-1.09,2s-2,.38-2.29-.25.16-1.53,1.09-2S80.69,88.88,81,89.51Z" transform="translate(-6.46 -8.96)"/><path class="cls-9" d="M89.87,83.47c.33.63-.16,1.53-1.1,2s-2,.38-2.29-.25.16-1.54,1.1-2S89.54,82.84,89.87,83.47Z" transform="translate(-6.46 -8.96)"/><path class="cls-3" d="M85.13,88.05s.08-.19.35-.38a6,6,0,0,0,1-.75c.32-.33.44-1,0-1.14s-1.09.42-1.75,1l-.49.4a1.06,1.06,0,0,1-.79.3,1.79,1.79,0,0,1-1.13-.79,5.47,5.47,0,0,1-.94-1.82C81,83.71,81.15,83,81.23,83s.14.69.55,1.68a5.91,5.91,0,0,0,1,1.59c.22.26.49.51.69.52s.15,0,.31-.15l.48-.41a11.6,11.6,0,0,1,1-.79,1.63,1.63,0,0,1,1.38-.25,1,1,0,0,1,.71,1.13,1.56,1.56,0,0,1-.5,1,4,4,0,0,1-1.23.65C85.32,88,85.16,88.08,85.13,88.05Z" transform="translate(-6.46 -8.96)"/><path class="cls-10" d="M83.63,99.84s3.86,0,6-1.27a9,9,0,0,1-5.33,2.74Z" transform="translate(-6.46 -8.96)"/><path class="cls-7" d="M85.3,82.51c0,.2-.57.25-1.14.51s-1,.58-1.16.47.11-.78.89-1.11S85.35,82.33,85.3,82.51Z" transform="translate(-6.46 -8.96)"/><path class="cls-7" d="M77.73,87.48c-.14-.11.08-.73.64-1.35s1.28-.85,1.36-.67-.36.57-.85,1.13S77.89,87.6,77.73,87.48Z" transform="translate(-6.46 -8.96)"/><path class="cls-3" d="M74.8,86.52c-.32-.23-.56-1.22.64-2.56s2.56-1.13,2.72-.75-.28.9-1.34,2.11S75.14,86.77,74.8,86.52Z" transform="translate(-6.46 -8.96)"/><path class="cls-3" d="M81.16,81.25c-.18-.32,0-1.27,1.57-1.92s2.63.06,2.62.45-.6.66-2,1.26S81.34,81.6,81.16,81.25Z" transform="translate(-6.46 -8.96)"/><path class="cls-4" d="M413.47,90.63c.1.1-1.58,2-5.06,4a30.36,30.36,0,0,1-30.21.23c-3.51-2-5.22-3.87-5.11-4s2.05,1.39,5.56,3.11a32.33,32.33,0,0,0,29.3-.22C411.44,92.05,413.32,90.45,413.47,90.63Z" transform="translate(-6.46 -8.96)"/><path class="cls-4" d="M375.5,87.78c-.1.21-2-.56-5.09-1.26a55.94,55.94,0,0,0-5.56-.92c-2.11-.23-4.45-.42-6.92-.59s-4.84-.37-7-.64a46.25,46.25,0,0,1-5.66-1.05c-3.2-.84-5-1.82-4.94-2s2,.44,5.14,1c1.58.3,3.48.53,5.6.74s4.47.35,6.95.53,4.84.4,7,.71a39.85,39.85,0,0,1,5.64,1.23C373.82,86.54,375.57,87.65,375.5,87.78Z" transform="translate(-6.46 -8.96)"/><path class="cls-4" d="M337.85,47.17c5.93-1.26,12.08-.17,18.06.82s12.2,1.9,18,.29c10.56-2.89,18.58-13.57,29.53-13.48,4.51,0,8.76,2,13.15,3,5.46,1.27,11.14,1.13,16.67,2s11.24,3.13,14.36,7.78c3.71,5.51,2.69,13.3-1.2,18.69S436.36,75,430,76.81c-4.45,1.3-9.2,2-13.05,4.63s-6.44,6.81-10.07,9.78c-9.11,7.45-23.28,5.31-32.69-1.75-2.37-1.78-4.56-3.84-7.21-5.14-10.81-5.28-26.34,1.72-35.65-7.91S323.21,50.28,337.85,47.17Z" transform="translate(-6.46 -8.96)"/><path class="cls-9" d="M334.88,236.4s9.9,21.22,11.06,17.29.77-13.37.15-14.71-4.67-7.3-4.67-7.3Z" transform="translate(-6.46 -8.96)"/><path class="cls-8" d="M406.45,64.85c.92,1.17.31-.09,1.34,1.6,4.31-.15,7.21-3.79,7.21-3.79s6.84.18,6.76-1-6.56-.77-6.56-.77,6.86-2.16,6.48-3.23S413.39,60,413.39,60s8-5,6.81-5.75-8.87,3.53-8.87,3.53S418,52.27,417,51.56,406.75,58,406.75,58c.13-3.51-2.38-3.38-2.38-3.38l.1,8.57A15.19,15.19,0,0,1,406.45,64.85Z" transform="translate(-6.46 -8.96)"/><path class="cls-8" d="M305.05,26c-1.47.27-.33-.24-2.23.34-3.12-3-2.71-7.65-2.71-7.65s-5.23-4.41-4.36-5.27,5.41,3.78,5.41,3.78-3.69-6.16-2.7-6.72,4.64,7.27,4.64,7.27-2.68-9-1.27-8.82,4.28,8.52,4.28,8.52S304.76,9,306,9.09s3.41,11.63,3.41,11.63c2.23-2.72,4-1,4-1L307.76,26A22.51,22.51,0,0,0,305.05,26Z" transform="translate(-6.46 -8.96)"/><path class="cls-8" d="M340.56,61.86c-1.9-.31-6.47,2.73-8.76,7.69a12.29,12.29,0,0,0-.7,10.1c.7,2.13,2.15,2.39,2.47,3.34.41,1.21-.95,5-.95,5L338,90.17c.35-2.6.75-5.23,3.4-6.36a26.22,26.22,0,0,0,3-1.23c2.53-1.45,3.88-4.62,4.92-7.22C350.13,73.42,345.3,62.63,340.56,61.86Z" transform="translate(-6.46 -8.96)"/><path class="cls-9" d="M334.12,135.54l-9.05-3.63s-26.86,49.82-26.75,63.64S335.22,237,335.22,237l6.2-5.36s-11.36-19.8-17.43-26.79S334.12,135.54,334.12,135.54Z" transform="translate(-6.46 -8.96)"/><path class="cls-8" d="M379.07,192.29S399,182.82,395,182s-13.38.31-14.68,1-6.89,5.24-6.89,5.24Z" transform="translate(-6.46 -8.96)"/><path class="cls-8" d="M343,135.11l-13.74,5s-13.73,60.42-8.49,69.91,20,3.2,40.95-8.24l17.56-9.59-5.86-3.91s-20.44,4-26.18,8c0,0,3-8.48,7-20.47S361,151.59,343,135.11Z" transform="translate(-6.46 -8.96)"/><path class="cls-8" d="M326.11,94c0-4,1.3-6.92,5.31-6.92S341,88.44,341,92.45,337.82,103,333.8,103,326.11,98,326.11,94Z" transform="translate(-6.46 -8.96)"/><path class="cls-8" d="M329.28,86.46S316.8,73,314.3,59.72,307.56,25,307.56,25l-4.74,1.37s-2.25,29.34,0,33.84,13.23,34.41,16.57,42.26Z" transform="translate(-6.46 -8.96)"/><path class="cls-8" d="M342.69,97s1-4.2,16.75-9.91S405,62.85,405,62.85l3,3.4s-16.18,18.69-25.59,22-29.41,16.2-31.46,17.24C347.8,107,347.84,109,342.69,97Z" transform="translate(-6.46 -8.96)"/><path class="cls-7" d="M329.28,86.46s-12.68,4.11-12.68,23.4c0,0,0,26.43,3,31.24a26.83,26.83,0,0,0,10.92,0c6.35-1.31,12.5-6,12.5-6l10-30-1.19-14-13.57-2.62s3.9,18.18-10.18,10.36c-2.74-1.51,4-11.83,4-11.83Z" transform="translate(-6.46 -8.96)"/><path class="cls-7" d="M318.55,102.15l-6.25-13s.9-7.9,12.37-10.73c0,0,1.16,4,2.43,5.51s5,3.13,5,3.13Z" transform="translate(-6.46 -8.96)"/><path class="cls-7" d="M342.18,107.38l19.87-4.07s3.45-7.16-4.74-15.67c0,0-15.5.93-17.5,1.1s-.62,1.69-.62,1.69Z" transform="translate(-6.46 -8.96)"/><path class="cls-7" d="M319.57,134.66s-18.8,34.75-21.9,41c0,0,55.45,25.47,78-5.19,0,0-12.81-27.1-32.6-37.42h0l-8.54-2.55-14.59,4" transform="translate(-6.46 -8.96)"/><path class="cls-8" d="M348.62,75s2.15-2.14,3.46-.66S347.31,78,347.31,78Z" transform="translate(-6.46 -8.96)"/><path class="cls-4" d="M387.79,45.83a7.49,7.49,0,0,1-2.39.81,32.81,32.81,0,0,1-6.81.78,67.57,67.57,0,0,1-10.13-.71c-3.78-.5-7.88-1.24-12.2-1.71a46.28,46.28,0,0,0-12.13,0,27.1,27.1,0,0,0-9.29,3.19,20.36,20.36,0,0,0-5.15,4.17c-1.05,1.19-1.52,2-1.62,1.89a6.1,6.1,0,0,1,1.2-2.22,18.37,18.37,0,0,1,5.07-4.67,26.62,26.62,0,0,1,9.58-3.61,44.65,44.65,0,0,1,12.48-.17c4.39.48,8.5,1.26,12.24,1.82a79.35,79.35,0,0,0,9.95,1C384.29,46.61,387.73,45.59,387.79,45.83Z" transform="translate(-6.46 -8.96)"/><path class="cls-3" d="M337.72,73.81c0,.09-.61.15-1.55-.16a2,2,0,0,1-.75-.42,1.17,1.17,0,0,1-.31-.46,1,1,0,0,1,0-.77s0-.16.09-.16h.18a1.33,1.33,0,0,1,.39,0,3.9,3.9,0,0,0,.5.06,4.29,4.29,0,0,0,.94-.1,3.81,3.81,0,0,0,2.56-2c.41-.78.45-1.37.56-1.36s.23.61-.11,1.56a3.91,3.91,0,0,1-1,1.46,4,4,0,0,1-1.9,1,4.25,4.25,0,0,1-1.12.1,3.63,3.63,0,0,1-.48-.06.16.16,0,0,1-.07,0,.06.06,0,0,0,0,0,.73.73,0,0,0,.14.26,1.91,1.91,0,0,0,.54.37C337.17,73.59,337.74,73.71,337.72,73.81Z" transform="translate(-6.46 -8.96)"/><path class="cls-2" d="M333.26,74.05l7.32,2.88S334.15,81.37,333.26,74.05Z" transform="translate(-6.46 -8.96)"/><path class="cls-9" d="M343.71,75.43c-.26.5-1.07.58-1.8.2s-1.12-1.1-.86-1.6,1.06-.58,1.8-.19S344,74.94,343.71,75.43Z" transform="translate(-6.46 -8.96)"/><path class="cls-9" d="M335.54,71.1c-.22.51-1,.66-1.78.33s-1.2-1-1-1.52,1-.66,1.78-.33S335.76,70.59,335.54,71.1Z" transform="translate(-6.46 -8.96)"/><path class="cls-10" d="M332.83,82.07s2.57,2.15,5.24,1.46c0,0-.92,1.38-4.47.88A2.56,2.56,0,0,0,332.83,82.07Z" transform="translate(-6.46 -8.96)"/><path class="cls-7" d="M343,70.84a.58.58,0,1,1-.58-.58A.58.58,0,0,1,343,70.84Z" transform="translate(-6.46 -8.96)"/><circle class="cls-7" cx="331.23" cy="60.16" r="0.58"/><path class="cls-4" d="M344.87,69.29c-.18.08-.52-.34-1.05-.68s-1-.51-1-.71.71-.33,1.41.14S345.05,69.24,344.87,69.29Z" transform="translate(-6.46 -8.96)"/><path class="cls-4" d="M336.51,66.48c0-.18.61-.41,1.44-.39s1.48.43,1.39.6-.67.1-1.42.09S336.52,66.67,336.51,66.48Z" transform="translate(-6.46 -8.96)"/><path class="cls-7" d="M339.12,245s3.05,10.81,6.19,9.92.78-16,.78-16L343,234S345.9,259.27,339.12,245Z" transform="translate(-6.46 -8.96)"/><path class="cls-7" d="M377.52,185.1a9.81,9.81,0,0,1,4.9-2.82c2.68-.4,12.28-1.54,13.68-.26s-7.77,5.55-7.77,5.55,3.2-2,1.87-2.8C387.85,183.42,377.52,185.1,377.52,185.1Z" transform="translate(-6.46 -8.96)"/><polygon class="cls-7" points="367.25 179.03 370.26 185.13 371.9 184.22 367.89 178.21 367.25 179.03"/><polygon class="cls-7" points="333.66 220.27 326.29 226.92 328.47 228.74 334.66 222 333.66 220.27"/><path class="cls-7" d="M186,163.07c-2.09-5.2-2.9-11-6-15.65-4.5-6.71-13.15-10-16.8-17.23a22.19,22.19,0,0,1-2.06-10c0-6.79,2-14,7.24-18.31,6-5,15.06-4.89,22.11-1.56s12.44,9.37,17,15.68,8.59,13.08,13.92,18.77c4,4.21,8.65,7.85,11.63,12.8,8.16,13.58-.24,30.76-14.66,35.66C205.65,187.56,190.34,174,186,163.07Z" transform="translate(-6.46 -8.96)"/><path class="cls-8" d="M167.91,258.84c1.25,1-.12.32,1.71,1.51-.41,4.55-4.63,7.42-4.63,7.42s-.17,7.26-1.53,7.11-.49-7-.49-7S160.2,275,159,274.58s3.08-8.65,3.08-8.65-5.95,8.2-6.77,6.91,4.42-9.2,4.42-9.2-6.47,6.78-7.2,5.68,7.72-10.53,7.72-10.53c-3.91,0-3.63-2.7-3.63-2.7l9.52.56A16.44,16.44,0,0,0,167.91,258.84Z" transform="translate(-6.46 -8.96)"/><path class="cls-8" d="M258.91,122c1.63.29.37-.25,2.48.36,3.47-3.15,3-8.11,3-8.11s5.83-4.67,4.86-5.59-6,4-6,4,4.11-6.53,3-7.12-5.16,7.7-5.16,7.7,3-9.55,1.42-9.35-4.77,9-4.77,9,1.51-9,.15-8.91-3.54,12-3.54,12c-3.19-2.6-5.42-.93-5.42-.93l7,6.84A25.37,25.37,0,0,1,258.91,122Z" transform="translate(-6.46 -8.96)"/><path class="cls-8" d="M219,161.63c2.95-.46,11.93,5.37,9.65,17.2a43.93,43.93,0,0,1-1.81,4.08c-.41,1.14,2.77,5.33,2.77,5.33l-8.21,2.63c-.35-2.48.24-6.11-2.41-7.18a29.91,29.91,0,0,1-3-1.17c-2.53-1.38-3.88-4.4-4.92-6.87a15,15,0,0,1-1.34-5.84C209.82,164.77,214.29,162.37,219,161.63Z" transform="translate(-6.46 -8.96)"/><path class="cls-8" d="M235.46,194c0-4.26-1.35-5.89-5.81-5.89s-10.37,1.63-10.37,5.89,3.16,9.58,7.63,9.58S235.46,198.28,235.46,194Z" transform="translate(-6.46 -8.96)"/><path class="cls-8" d="M231.94,186.08s13.89-14.32,16.67-28.36,7.5-36.8,7.5-36.8l5.28,1.45s2.5,31.12,0,35.88S244.72,196.11,245,204.58Z" transform="translate(-6.46 -8.96)"/><path class="cls-8" d="M207.17,193s-4.72.79-11.95,17.2-29.45,47-29.45,47l3.61,3.32s21.67-16.14,25.84-25.94,9.45-22,11.95-21.44S220.23,199.1,207.17,193Z" transform="translate(-6.46 -8.96)"/><path class="cls-3" d="M244.37,206.77l6.47-17.85s-1-8.38-13.77-11.38L229.84,188Z" transform="translate(-6.46 -8.96)"/><path class="cls-3" d="M209.33,191.65s-7.63.64-13.82,14.23c0,0,6.8,9.39,11.78,9.7C207.29,215.58,225.78,199.78,209.33,191.65Z" transform="translate(-6.46 -8.96)"/><path class="cls-8" d="M230.3,352.77s-11,22.5-12.31,18.33-.86-14.17-.17-15.6,5.2-7.74,5.2-7.74Z" transform="translate(-6.46 -8.96)"/><path class="cls-11" d="M231.14,245.82,241.21,242s29.9,52.82,29.78,67.48-41.07,44-41.07,44l-6.9-5.69s19.4-28.53,26.16-35.93c3.38-3.7-20.81-21.85-24.47-39.31S231.14,245.82,231.14,245.82Z" transform="translate(-6.46 -8.96)"/><path class="cls-8" d="M170.56,341s-20.6,15.19-19.75,10.92,6.05-13,7.35-13.94,8.34-4.61,8.34-4.61Z" transform="translate(-6.46 -8.96)"/><path class="cls-4" d="M203.73,264.52l29.81-17.27s1.18,60-6,73-57.65,21.2-57.65,21.2l-3.41-8.07s31.16-18.56,40.72-22.2S203.73,264.52,203.73,264.52Z" transform="translate(-6.46 -8.96)"/><path class="cls-4" d="M221.48,235.43s-21.95,7.77-17.75,29.09,11.19,25.32,11.19,25.32l12.58-20.65,12.64-27.05-12.64-1.6Z" transform="translate(-6.46 -8.96)"/><path class="cls-3" d="M231.94,186.08A34.78,34.78,0,0,1,248.1,215.6S246,238.93,242.72,244a31.18,31.18,0,0,1-12.15,0c-7.08-1.39-13.92-6.36-13.92-6.36l-5.52-28.56-4.3-16.68,2.33-.77,12.16-1.33s-1.75,18.15,11.82,9.14c2.86-1.9-3.56-11.37-3.56-11.37Z" transform="translate(-6.46 -8.96)"/><path class="cls-7" d="M169.65,132.17a9.11,9.11,0,0,1,2,2,41.92,41.92,0,0,1,4.4,6.34,46,46,0,0,1,4.36,10.61c1.19,4.14,2,8.8,3.8,13.28a29.66,29.66,0,0,0,3.45,6.1,32.65,32.65,0,0,0,4.47,4.79,31.75,31.75,0,0,0,9.57,5.63,31,31,0,0,0,7.33,1.76,14,14,0,0,1,2.79.34,9.23,9.23,0,0,1-2.82.19,26.46,26.46,0,0,1-7.62-1.37,30.94,30.94,0,0,1-10.06-5.58,32.86,32.86,0,0,1-4.73-5,29.75,29.75,0,0,1-3.65-6.39c-1.9-4.69-2.65-9.38-3.75-13.47a49.11,49.11,0,0,0-4-10.47,54.85,54.85,0,0,0-4-6.48A15.15,15.15,0,0,1,169.65,132.17Z" transform="translate(-6.46 -8.96)"/><path class="cls-7" d="M211.28,109.05c.25,0,.49,3.3,2.36,8.23a37.05,37.05,0,0,0,4.3,8.12,41.56,41.56,0,0,0,3.44,4.21c1.29,1.4,2.69,2.82,4,4.41a63.35,63.35,0,0,1,6.2,9.77,39.37,39.37,0,0,1,3.76,8.68,15.94,15.94,0,0,1,.54,6.39,5.3,5.3,0,0,1-.68,2.25,14.39,14.39,0,0,1,.15-2.3,18,18,0,0,0-.94-6.07,43.94,43.94,0,0,0-3.93-8.34,70.39,70.39,0,0,0-6.16-9.5c-1.28-1.54-2.66-3-4-4.39a37.48,37.48,0,0,1-3.49-4.39,35,35,0,0,1-4.18-8.51,30.39,30.39,0,0,1-1.39-6.22A6.52,6.52,0,0,1,211.28,109.05Z" transform="translate(-6.46 -8.96)"/><path class="cls-3" d="M221.67,174.49c0-.1.53-.18,1.06-.8a.83.83,0,0,0,.23-.46.76.76,0,0,0-.24-.49.73.73,0,0,0-.58-.19c-.24,0-.54.14-.93.2a2.51,2.51,0,0,1-2-.75,6.71,6.71,0,0,1-1-1.2c-.51-.75-.67-1.29-.59-1.33s.4.4,1,1a9.69,9.69,0,0,0,1.07,1,2,2,0,0,0,1.45.56c.27,0,.59-.16,1-.19a1.37,1.37,0,0,1,1.07.42,1.1,1.1,0,0,1-.09,1.73C222.33,174.69,221.64,174.58,221.67,174.49Z" transform="translate(-6.46 -8.96)"/><path class="cls-2" d="M225.67,175.05l-6.51,2.37S224.68,182.25,225.67,175.05Z" transform="translate(-6.46 -8.96)"/><path class="cls-9" d="M218.51,174.65c.26.49-.12,1.21-.86,1.59s-1.54.31-1.8-.19.13-1.21.86-1.59S218.25,174.16,218.51,174.65Z" transform="translate(-6.46 -8.96)"/><path class="cls-9" d="M226.23,170.69c.21.52-.24,1.2-1,1.51s-1.56.16-1.77-.36.23-1.19,1-1.5S226,170.18,226.23,170.69Z" transform="translate(-6.46 -8.96)"/><path class="cls-10" d="M219.35,183.86a12.42,12.42,0,0,0,5-.25,6.94,6.94,0,0,1-3.61,1.64A3.85,3.85,0,0,0,219.35,183.86Z" transform="translate(-6.46 -8.96)"/><path class="cls-7" d="M221.58,169.23a.59.59,0,0,1,.07.82.59.59,0,0,1-.82.07.58.58,0,1,1,.75-.89Z" transform="translate(-6.46 -8.96)"/><path class="cls-7" d="M217.21,171.75a.58.58,0,0,1,.06.82.57.57,0,0,1-.81.06.56.56,0,0,1-.07-.81A.58.58,0,0,1,217.21,171.75Z" transform="translate(-6.46 -8.96)"/><path class="cls-7" d="M221.61,166.81c-.06.19-.61.18-1.2.36s-1.06.46-1.21.33.2-.76,1-1S221.68,166.64,221.61,166.81Z" transform="translate(-6.46 -8.96)"/><path class="cls-7" d="M214.05,171.38c-.14-.11.08-.74.64-1.36s1.28-.84,1.36-.67-.36.58-.85,1.14S214.21,171.49,214.05,171.38Z" transform="translate(-6.46 -8.96)"/><path class="cls-8" d="M211.6,176.21s-2.09-1.76-3.09-.17,4.51,2.42,4.51,2.42Z" transform="translate(-6.46 -8.96)"/><path class="cls-4" d="M161.42,336.05a19.57,19.57,0,0,0-3.78,2.08c-.78.78-7.93,13.14-7,14.7s8.08-3.74,8.08-3.74-6,1.14,2.72-13" transform="translate(-6.46 -8.96)"/><path class="cls-4" d="M219.8,352.39a15.74,15.74,0,0,0-2.45,3.35c-.33,1.06-.92,15.33.61,16.28s5.73-6.91,5.73-6.91-5,3.92-3.89-12.68" transform="translate(-6.46 -8.96)"/></g></svg>