<svg xmlns="http://www.w3.org/2000/svg" width="51.454" height="60.025" viewBox="0 0 51.454 60.025"><g transform="translate(-4.5 -2.25)"><path d="M28.125,9a6.75,6.75,0,1,1-6.75-6.75A6.75,6.75,0,0,1,28.125,9Z" transform="translate(8.852 0)" fill="#c08d60"/><path d="M52.738,10.125H7.716a3.163,3.163,0,1,0,0,6.326h13.2a2.829,2.829,0,0,1,2.3,1.871c.63,1.595.322,4.428-.067,6.813l-.509,2.82a.048.048,0,0,1-.013.04h0L18.556,50.688a3.2,3.2,0,0,0,6.311,1.094l2.814-15.8v.026s.831-4.283,2.479-4.283h.147c1.675,0,2.479,4.283,2.479,4.283v-.013L35.6,51.8a3.2,3.2,0,0,0,3.712,2.557,3.16,3.16,0,0,0,2.6-3.664L37.838,27.995h0a.048.048,0,0,0-.013-.04l-.509-2.82c-.389-2.385-.7-5.219-.067-6.813a2.829,2.829,0,0,1,2.3-1.871H52.738a3.163,3.163,0,1,0,0-6.326Z" transform="translate(0 7.875)" fill="#c08d60"/></g></svg>