<svg xmlns="http://www.w3.org/2000/svg" width="75.223" height="60" viewBox="0 0 75.223 60"><path d="M65.338,33.517a6.361,6.361,0,0,1,2.475-1.567l6.729-2.52a2.544,2.544,0,0,0,1.4-2.082V9.738A2.261,2.261,0,0,0,74.477,7.79S60.4,2.88,50.969,2.88c-8.776,0-20.909,4.245-20.909,4.245a16.817,16.817,0,0,1-3.02.689L2.276,10.255A1.73,1.73,0,0,0,.72,11.868V23.821a1.853,1.853,0,0,0,1.54,1.7l24.753,3.665a18.925,18.925,0,0,1,3,.766l16.952,3.978a2.8,2.8,0,0,1,2.061,1.574l9.965,26.4a1.627,1.627,0,0,0,2,.9l10.536-3.251a1.521,1.521,0,0,0,.9-.723,1.319,1.319,0,0,0,.074-1.095L65.584,39.431c-.282-.749-.52-1.4-.531-1.456l-.013-.055c-.829-3.126.3-4.4.3-4.4Zm-12.026-9.5c-3.934,0-7.11-2.875-7.11-6.419s3.177-6.419,7.11-6.419,7.107,2.875,7.107,6.419S57.233,24.015,53.312,24.015Z" transform="translate(-0.72 -2.88)" fill="#c08d60"/></svg>