<svg xmlns="http://www.w3.org/2000/svg" width="55.385" height="60" viewBox="0 0 55.385 60"><path d="M57.227,34.594a4.662,4.662,0,0,0-6.782-.176L44.862,40c-1.453,1.451-3.2,1.454-4.227.248-.677-.8-.41-3.264-.22-4.828l2.8-23.015a3.754,3.754,0,1,0-7.449-.906L32.677,29.574c-.161.45-.508.527-.547-.078L31.079,6a3.752,3.752,0,0,0-7.5,0L23.5,29.672c.02.273-.215.351-.257.039L19.906,11.234a3.834,3.834,0,0,0-4.359-3.141,3.868,3.868,0,0,0-3.026,4.474L15.494,34.19c0,.385-.126.6-.309.111L10.75,22.446a3.815,3.815,0,0,0-4.791-2.4,3.879,3.879,0,0,0-2.28,4.906l7.773,25.4c.041.14.084.279.128.418l.016.052,0,.012A16.538,16.538,0,0,0,27.327,62.25a22.377,22.377,0,0,0,13.307-4.51h0c4.017-2.418,16.885-16.252,16.885-16.252A4.8,4.8,0,0,0,57.227,34.594Z" transform="translate(-3.462 -2.25)" fill="#c08d60"/></svg>